/* XPM */
static char *_86b0db8c8e74e98a7ef046d7c618212ZeIg5EmltpfpYtb3[] = {
/* columns rows colors chars-per-pixel */
"50 50 256 2 ",
"   c #030100",
".  c #080309",
"X  c #150604",
"o  c #010115",
"O  c #010B14",
"+  c #01021C",
"@  c #0A031C",
"#  c #010A1D",
"$  c #0B0615",
"%  c #150619",
"&  c #061719",
"*  c #15150B",
"=  c #371B19",
"-  c #300F0C",
";  c #3A2912",
":  c #010524",
">  c #000A25",
",  c #02042A",
"<  c #0C022D",
"1  c #020A2B",
"2  c #0A0C2D",
"3  c #0C0723",
"4  c #160425",
"5  c #02132C",
"6  c #061426",
"7  c #151529",
"8  c #010433",
"9  c #0C0331",
"0  c #020B32",
"q  c #0C0C32",
"w  c #010B3A",
"e  c #08053A",
"r  c #120937",
"t  c #021333",
"y  c #01143B",
"u  c #021A3A",
"i  c #0A1536",
"p  c #141738",
"a  c #310E32",
"s  c #082639",
"d  c #192636",
"f  c #033234",
"g  c #363425",
"h  c #312D33",
"j  c #122011",
"k  c #4A1309",
"l  c #593618",
"z  c #4F2C10",
"x  c #6E320D",
"c  c #481927",
"v  c #4F1533",
"b  c #4A3727",
"n  c #4A3639",
"m  c #532E30",
"M  c #6A2F30",
"N  c #721F00",
"B  c #554211",
"V  c #5C480D",
"C  c #774507",
"Z  c #784616",
"A  c #704E11",
"S  c #504632",
"D  c #675833",
"F  c #755536",
"G  c #744831",
"H  c #786A34",
"J  c #736617",
"K  c #051945",
"L  c #171946",
"P  c #0E0C49",
"I  c #241D49",
"U  c #2F0D4C",
"Y  c #082549",
"T  c #182747",
"R  c #062B5D",
"E  c #173053",
"W  c #27294B",
"Q  c #252A59",
"!  c #253756",
"~  c #383551",
"^  c #301B67",
"/  c #053369",
"(  c #103770",
")  c #2A326A",
"_  c #4E2E50",
"`  c #6F374F",
"'  c #46356B",
"]  c #582E62",
"[  c #364554",
"{  c #194674",
"}  c #364865",
"|  c #284774",
" . c #344A76",
".. c #365576",
"X. c #2D4C6D",
"o. c #544E4F",
"O. c #6F4F48",
"+. c #776757",
"@. c #4A476A",
"#. c #455566",
"$. c #444B74",
"%. c #505075",
"&. c #674D6D",
"*. c #576474",
"=. c #6F6A76",
"-. c #5B625B",
";. c #823503",
":. c #853E2C",
">. c #954609",
",. c #8D5012",
"<. c #A6560C",
"1. c #986418",
"2. c #96660D",
"3. c #AD6B0C",
"4. c #8D5139",
"5. c #A85B30",
"6. c #946B31",
"7. c #B47734",
"8. c #AF6F2F",
"9. c #C37717",
"0. c #CA6F09",
"q. c #CC772A",
"w. c #844F48",
"e. c #93724E",
"r. c #A97750",
"t. c #916D71",
"y. c #AA726A",
"u. c #995870",
"i. c #C97C50",
"p. c #C7796C",
"a. c #798176",
"s. c #B38D33",
"d. c #CF8815",
"f. c #CF902E",
"g. c #E29233",
"h. c #D4AB2D",
"j. c #ECAE35",
"k. c #E4C636",
"l. c #968956",
"z. c #B89758",
"x. c #B08C52",
"c. c #8D8368",
"v. c #B18C6E",
"b. c #B4A678",
"n. c #B0A241",
"m. c #D0964B",
"M. c #D3B15A",
"N. c #E7B150",
"B. c #C39369",
"V. c #CEAD72",
"C. c #EDB56A",
"Z. c #E79C56",
"A. c #F6CB4E",
"S. c #D9CC71",
"D. c #FAC769",
"F. c #FCD87B",
"G. c #F6CE70",
"H. c #F5E979",
"J. c #DBC65D",
"K. c #0B1799",
"L. c #333295",
"P. c #152EB5",
"I. c #3737B6",
"U. c #2D31A9",
"Y. c #4E3BA1",
"T. c #344695",
"R. c #3D48A8",
"E. c #384FAF",
"W. c #2769AF",
"Q. c #4A5D8B",
"!. c #55518E",
"~. c #6B5391",
"^. c #456488",
"/. c #556E90",
"(. c #707492",
"). c #504FAD",
"_. c #536FB2",
"`. c #6B78A2",
"'. c #7773AE",
"]. c #6454B6",
"[. c #3739C5",
"{. c #1B33E7",
"}. c #413DD2",
"|. c #1560CB",
" X c #454DCD",
".X c #5769CB",
"XX c #767ED3",
"oX c #6168F2",
"OX c #88718B",
"+X c #8774AF",
"@X c #A67B99",
"#X c #817EC1",
"$X c #6E8D9A",
"%X c #788CB8",
"&X c #7C95BB",
"*X c #6B89B0",
"=X c #6F9DBA",
"-X c #6487C5",
";X c #7493D2",
":X c #73A4D2",
">X c #5197F3",
",X c #6C91EF",
"<X c #56A7F0",
"1X c #549AD3",
"2X c #7EC7FE",
"3X c #909496",
"4X c #AE8C92",
"5X c #8D94B0",
"6X c #B299AA",
"7X c #93A9B8",
"8X c #A6AEAA",
"9X c #B9AC86",
"0X c #DBB89D",
"qX c #CFAF8D",
"wX c #D4A594",
"eX c #D7C794",
"rX c #FCD987",
"tX c #FACA95",
"yX c #EECE8E",
"uX c #FBF897",
"iX c #FCEA91",
"pX c #F1D2AB",
"aX c #FCE7A9",
"sX c #FAF1B5",
"dX c #D5CAA5",
"fX c #979AC7",
"gX c #8D92CE",
"hX c #99A5C7",
"jX c #8EA6D1",
"kX c #A6A9CB",
"lX c #ABB2D3",
"zX c #8C8EEF",
"xX c #8CABE6",
"cX c #B0B6EE",
"vX c #A297CF",
"bX c #C8BAD4",
"nX c #E7BCCF",
"mX c #ADC9D9",
"MX c #96CBEF",
"NX c #A8C5EA",
"BX c #B9C9F4",
"VX c #AED1F8",
"CX c #B7E5FF",
"ZX c #AEEDFC",
"AX c #F9F4D6",
"SX c #F6EFCC",
"DX c #CAD7FD",
"FX c #CCD1F5",
"GX c #F4D5EC",
"HX c #D8FDFF",
"JX c #CEEAFD",
"KX c #E3FEFF",
"LX c #E8FAFF",
"PX c #F6FAFF",
"IX c #F2E7F6",
"UX c #DAD0D3",
/* pixels */
": : > : : : : > : > : : : : : @ $ % 3 < q , : , : + 7 + p L < , : # # # # # # > > > : : , , , , : : ",
": : : : : : : : : : : : > : : : @ % @ + q q , 0 W + W p : : 8 , > # # # > # > > > > : : , , , , : > ",
": : : : : > : : : : : : : : : # @ 3 + + 2 r 1 > + } kXkX$.L e 8 > # # # # # > # > : > : : , , , : : ",
": > : : : : : : : : > : : : : : + > + + < 2 : + + lXPXLXBX*XP , > + # > # > > : : > : , , , , : , : ",
": : : > : : : > : : > : : : : : + 1 > : > : + 2 kXIXDXlXDXcX .w , + > @ : : : : : , : , , , , , : : ",
": : : : : : : : : : : : : : : 1 : 1 > > : o 7 @.PXBXcXBXDXxX-XR < : : : : 3 : + : : : , , : 1 : : > ",
"> : : : : > : : : : : : > : : : 1 1 5 5 + O @.bXFXkXDXLXKX:X:X| , : 3 : : 3 : < 1 : : : , , > : : : ",
": : : : : : : : : > : : : : : > t 1 > > o @ (.PXbXcXLXDXKX-X_.( , : : : < : : < < : : : : 1 1 > > : ",
": : > : : > : : + > + : : : 2 + t : + 6 & 3 lXIXDXIXPXLXVX;X-XY 1 + p : < : : < : < , , : 1 > 1 : : ",
": : : : : : : > : : + 2 1 + + i , > o # o % 5XcX#XXXXX;XXX.X-XY w : , : q : < : < , : , : : > > > : ",
": : : : : > : : : : + : 2 : + 3 : 7 3 $ o q (.'.).).).].zX;X_.5 t u L : , L ~ r < : 1 : , > > : : : ",
": > : : : : : : + > : + > 2 + o o $ % % 7 ~ +X).L.U.). XzXjXQ.: : : t E `.kXlX$.< : , , : : 1 > > : ",
": : : : : : : : + : > + 2 : + %.bX6X3X6XOX5X+X).U.U.I.Y.zXxX/.W s s /.NXLXDXFX`., < : : > > > > : : ",
": : : > : : : : 1 + 1 2 2 + 2 bXu.v c =.OX+X!.L.U.[.}.I.zXvX(.(.*.=XZXKXLXDXFX$., , , , , : > : > : ",
"> : : : > : : : 2 + 2 : 2 + 2 bX4Xc v 6XbXvX].U.K.U.}.[.#X+X%.(.jXMXMXCXHXLXIXL , , , : : > : 3 : : ",
"> : # : + : : : > : 2 : 1 p + (.nX` n GXIXvXY.U.U.[.}.}.zX'.@.5X=X=XNXKXLXjXjX) 8 , : : : : : , : : ",
"6 > # # $ @ @ : 1 : 8 : 2 < @ ] 4XnX@XOX+X].].Y.I.U.E._.-X_.' jX$XZXHXHXxX.XxX( P , > # # + < < < : ",
"> 5 # # @ @ @ : , : y , : + 4 &.4X4XwXOX~.' ^ L.R..X.XE.R.T.).cXVXZXxX;X.X,XXXP e , # O @ : < 9 , : ",
"6 # # + @ @ 3 : 1 , t 1 : @ % M v.5.p.y.e.t.o.W  .jXxX.XE.).;XcXoXP.K.oX.X].P < : O O O > , 8 8 , , ",
"> > # : : : : , 1 : : > 7 4 % - r.r.8.q.x.x.b.-.@.gX-X.XE.E..X X{.{.oX#X].'.~.7 $ O # # : , 8 8 < , ",
"> > : : , , , 8 1 5 + O $ % = k :.i.q.<.<.1.z.b.~ !.L.E. X X.X X{.{.oXXX^ ' 4Xa X $ @ : 1 1 1 1 , : ",
"# > : , 8 8 8 8 , t # o   X O.w.k x 5.<.8.s.1.b.; W ( R.E.U.I.). XP.).]._ &.0Xm X $ : , 1 > > # : , ",
"@ : < , 8 8 8 8 # 6 O . X b 4Xy.M k 5.i.m.7.1.v.b 7 W ) ^ Q L I K W &.o.o.4Xc.X % @ : , > # O O : , ",
"@ 3 < , 8 8 w 1 # O   * b e.0Xv.p.w.4.wX5.k 6.v.b . X % h &.=.3Xt.l.9XdXeXqX; X $ < , , : # O O > , ",
"% + q , 8 w , + 6     z v.dXpXqXV.z.m.x.,.k x r.v.e.F e.9Xv.t.l.6.s.r.z.b.F * $ # 5 t 1 : 3 3 @ : : ",
"@ + 9 8 8 e 1 +   X S b.yXdXdXaXeXM.M.z.,.z z :.z.V.V.l.6.V Z Z 1.7.x.B.v.S X & O 6 5 5 > < 4 4 , 1 ",
"@ o q , 1 q + $ . D qXyXpXpXsXsXuXH.S.b.r.G l k y.V.b.e.F 4.M M :.:.r.y.O.c = h & & & s p < r U < 1 ",
"# + 1 , , > . X D z.yXyXyXaXSXsXuXuXrXeXqXv.w.N M y.y.G c c c v v v ` M k k O.+.g j & d p e e P 8 1 ",
"# + 1 : 1 @   ; B.M.C.rXiXeXSXAXsXSXsXsXpXwXy.w.k m v c a a U U U U v c k z 6.l.D ; j 7 T K e K 0 1 ",
"+ # 1 : 5 $ * F B.M.G.rXiXsXSXAXSXAXSXSXaXtXwXB.O.M a % v ] U a e U v v ,.8.8.7.6.S = d T T s u t 1 ",
"O > 1 > 6 $ - r.7.Z.G.G.yXsXAXAXGXIXAXSXaXrXF.C.V.wXt._ a 4 4 a w W ; z 3.f.d.q.8.w._ h T f f f 5 t ",
"# 1 1 : 1 O - x.M.f.h.D.H.yXyXSXIXGXsXaXuXiXrXrXtX0Xt._ = = g b h S ; k 2.d.0.3.8.6.O.h d f f f 5 i ",
"> : 8 w e p m F x.f.h.k.A.A.G.F.pXpXrXH.uXuXiXuXiXpX` a l.J 6.l.n.V.6.z z 7.i.8.1.1.A S g d f s i i ",
"> : 8 P L W o.w.e.f.d.h.j.A.A.D.tXtXA.A.iXuXH.H.sX0X_ ` yXJ.J.S.M.S.m.,.N ,.q.5.1.,.A B g d L K u i ",
"# 5 t L Q @.*.t.e.x.s.s.M.M.M.eXeXG.k.k.F.F.J.H.iXp.v ` tXrXrXC.A.N.M.8.N N 5.8.1.,.A V z d Y K y t ",
"& 6 i E  .^.(.3Xc.c.l.b.b.eXdXqX9XJ.h.h.C.D.A.J.rXr.v u.C.C.tXC.m.f.m.q.;.N <.8.>.,.V V g d K K t t ",
"6 6 s !  ./.*X5X3Xa.9X8X8XUXZX8X8X9Xn.s.Z.C.N.N.C.5.k y.C.Z.Z.Z.j.9.g.q.>.;.>.>.>.C V B g d K K t 5 ",
"6 j s ! ..T./.*X7X$X7XmXMXZXZX*X&X3Xl.l.B.Z.Z.g.m.,.- e.g.g.g.9.g.0.3.9.<.;.>.>.C V B g h ! Y K t 5 ",
"& 6 d E { | ^.*X=XjXNXVXZXZX2X1X,X;X(.+.y.p.i.7.m.6.- 1.f.d.0.0.3.<.<.<.<.,.:.x l V B n [ ! R Y u t ",
"& 7 p T E ! T.^./.MXMXZXZXZX<X<X<X,X_.&.u.y.5.,.1.1.; ,.d.2.<.0.<.3.>.>.:.;.x x l b S [ X.( ( R u t ",
"4 3 2 P P R | Q.*XVXJXHXHXZX<X<X>X>X.X!.] ` 4.Z 6.V ; B A 2.>.>.x C Z Z x l l g b S #.} ..{ { / Y u ",
"3 < q i L Q  ./.%XBXDXCXZXMX1X1X|.|.E.( U _ M O.H D D D J C C C Z Z l l l b b n -.} #.....{ / / K s ",
"< < 9 r L Q $.!.`.fXcXcXCXjXW.W.W.W._.Q.' _ n n o.-.-.o.S z k b l b b S o.o.=.=.*.#...| { ( / / K i ",
"4 < < p T W @./.(.gXlXcXDXmX=X=X:X1X:XgXkX8X5X3X=.-.#.[ [ ~ _ ~ h h _ o.-.*.*.*.X.X.E / R / R Y y i ",
"9 9 9 p d W @.%.~.+X#XvXcXBXBXBXVXxXgX&X7XlXmXkXmXmXhXhXhXkXvXfX7X5X3X3X$X*...X.E Y K K Y Y K u t 5 ",
"< , 1 i p T ! ' &.~.+X+X+XfXfX5XgX5X`./.*./.(.$X7XjXhX5X5X;X;X5X%X`./.%.[ T 5 t K K y y y t 5 > 1 1 ",
"1 : > 6 6 5 p I ^ ] ~.~.~.~.~.!.!.~.!./.....^.^...^./.*.......X.X.| ! E Y u u y w w w w 1 > # + 2 , ",
": + # 5 6 > 2 r e U U ^ ^ ' %.%.~.' ) ! E E Y E ! } [ ! ! ! T s Y Y K u 5 > : : 0 1 0 , > # $ # > > ",
": > > # : > : : < < 9 r L I I I I I L p i t 0 0 i i q i q t 5 1 3 , 1 : > > 1 : 1 : , : > : : : > : ",
": : : > : : : : : : , < r r p r r q q 0 1 , : : , 1 1 1 2 1 , : : : : : : : : : : : : : : : : : : : "
};
