/* XPM */
static char *f1a71cf4df334298947d952708c22c90gKshfbXJiM3kTkSO[] = {
/* columns rows colors chars-per-pixel */
"50 50 256 2 ",
"   c #362A12",
".  c #1D342A",
"X  c #372B28",
"o  c #39362A",
"O  c #3D3C39",
"+  c #383A36",
"@  c #2D3331",
"#  c #231D11",
"$  c #4D1910",
"%  c #5A3804",
"&  c #472B15",
"*  c #572919",
"=  c #473517",
"-  c #56351A",
";  c #4F2C08",
":  c #643917",
">  c #6C3011",
",  c #492B28",
"<  c #562827",
"1  c #4C3A2B",
"2  c #483728",
"3  c #533C2C",
"4  c #583829",
"5  c #4A2E37",
"6  c #5A2C35",
"7  c #443333",
"8  c #4C3B33",
"9  c #443C3B",
"0  c #4A3838",
"q  c #543533",
"w  c #533D33",
"e  c #593739",
"r  c #652D28",
"t  c #673927",
"y  c #793B2A",
"u  c #653939",
"i  c #773E36",
"p  c #6E2B37",
"a  c #671C19",
"s  c #3B443A",
"d  c #2F4535",
"f  c #3C430F",
"g  c #55431A",
"h  c #6D5018",
"j  c #4A4729",
"k  c #594529",
"l  c #43433C",
"z  c #4C433B",
"x  c #464635",
"c  c #54443B",
"v  c #5B433D",
"b  c #544B3D",
"n  c #5A4636",
"m  c #57593A",
"M  c #4F5431",
"N  c #65472A",
"B  c #685928",
"V  c #77572B",
"C  c #61433C",
"Z  c #6D4A3C",
"A  c #674736",
"S  c #764939",
"D  c #69553A",
"F  c #785737",
"G  c #794729",
"H  c #786639",
"J  c #6A6637",
"K  c #476237",
"L  c #2B3847",
"P  c #393A45",
"I  c #373853",
"U  c #372B43",
"Y  c #383665",
"T  c #4B3C44",
"R  c #473746",
"E  c #5D3C43",
"W  c #583946",
"Q  c #473C53",
"!  c #543B53",
"~  c #4F2C46",
"^  c #653D46",
"/  c #743846",
"(  c #4E3B6B",
")  c #3A4746",
"_  c #3B5348",
"`  c #3B4955",
"'  c #2F4D50",
"]  c #3A5962",
"[  c #4B4343",
"{  c #43444C",
"}  c #484946",
"|  c #5B4442",
" . c #544B43",
".. c #5C4C43",
"X. c #574749",
"o. c #4A544A",
"O. c #5C534B",
"+. c #565547",
"@. c #494955",
"#. c #574857",
"$. c #475357",
"%. c #595B55",
"&. c #585657",
"*. c #6B4343",
"=. c #654B45",
"-. c #6D4B45",
";. c #664749",
":. c #764946",
">. c #6B544C",
",. c #675747",
"<. c #73544C",
"1. c #775848",
"2. c #674955",
"3. c #744A53",
"4. c #635B53",
"5. c #685757",
"6. c #765857",
"7. c #5D625A",
"8. c #67634A",
"9. c #7A6849",
"0. c #696759",
"q. c #726954",
"w. c #72655B",
"e. c #786759",
"r. c #78755B",
"t. c #73734D",
"y. c #484B63",
"u. c #485664",
"i. c #545766",
"p. c #584F66",
"a. c #665C65",
"s. c #725B64",
"d. c #755D74",
"f. c #6B536A",
"g. c #536766",
"h. c #6B6B66",
"j. c #7E6C63",
"k. c #786765",
"l. c #6D7568",
"z. c #7A7462",
"x. c #787768",
"c. c #786974",
"v. c #797775",
"b. c #6A7178",
"n. c #833332",
"m. c #884828",
"M. c #894A3A",
"N. c #87553B",
"B. c #925436",
"V. c #926934",
"C. c #AA712D",
"Z. c #863949",
"A. c #864B49",
"S. c #865748",
"D. c #965546",
"F. c #865956",
"G. c #955758",
"H. c #8E4954",
"J. c #87674B",
"K. c #966846",
"L. c #876757",
"P. c #976856",
"I. c #87765B",
"U. c #967659",
"Y. c #8D7849",
"T. c #A77759",
"R. c #B97658",
"E. c #AA7051",
"W. c #895B67",
"Q. c #9D5F6A",
"!. c #826B6A",
"~. c #876866",
"^. c #976966",
"/. c #827364",
"(. c #83746C",
"). c #8D746C",
"_. c #857B6C",
"`. c #8D7C6C",
"'. c #897863",
"]. c #937C6C",
"[. c #987767",
"{. c #886C73",
"}. c #857572",
"|. c #837D72",
" X c #8C7C73",
".X c #8D7A79",
"XX c #897576",
"oX c #947B72",
"OX c #937B7A",
"+X c #987776",
"@X c #976C74",
"#X c #A67769",
"$X c #A67875",
"%X c #B57E73",
"&X c #B17267",
"*X c #A35C5A",
"=X c #C57669",
"-X c #C96C4B",
";X c #798268",
":X c #7C877A",
">X c #70815F",
",X c #A3803E",
"<X c #978758",
"1X c #8D885B",
"2X c #B08D50",
"3X c #888769",
"4X c #97846A",
"5X c #838374",
"6X c #8C8374",
"7X c #83837C",
"8X c #8D837A",
"9X c #89897B",
"0X c #988678",
"qX c #9A9477",
"wX c #A98868",
"eX c #BC8666",
"rX c #A69665",
"tX c #A68877",
"yX c #B69374",
"uX c #B28D73",
"iX c #BBA97C",
"pX c #99A17C",
"aX c #D18D50",
"sX c #F2AE4C",
"dX c #C48569",
"fX c #C48B78",
"gX c #C89377",
"hX c #D39B6E",
"jX c #CCAB73",
"kX c #E5AD61",
"lX c #D8C078",
"zX c #D9A039",
"xX c #7A6B81",
"cX c #737589",
"vX c #474A81",
"bX c #897B85",
"nX c #977A83",
"mX c #887F94",
"MX c #A27685",
"NX c #7A8E95",
"BX c #8A8783",
"VX c #968885",
"CX c #9B978B",
"ZX c #8F8990",
"AX c #A28283",
"SX c #B78B88",
"DX c #A79186",
"FX c #B8968E",
"GX c #BCA78C",
"HX c #9C92AB",
"JX c #CC9081",
"KX c #D4B087",
"LX c #EAAD89",
"PX c #D3B6A8",
"IX c #D9C991",
"UX c #F5CA9F",
/* pixels */
"6.z.q.8.+.m 0. .7 2.2.2.;.n D x 4.o.o. .Z Z =.O.7.&.2.5.7.+.<.F.W.2.;.9.8.M o.h.&.b N B 9.6.f.d.bX5.",
"w.oX_._.;X5XCXVX#.@XnXMX+X].tX3XVXBX:X9X$X@X)._.9X:XbXVX:Xv.).+XFXFXAX3Xr.r.5XBXv.q.9.1XwXoX@XnXVX5.",
"=.j.j.r.r.r.VX9X5.OXnX+X~.1.I.I. X|.l.z.L.L.e.z.h.k.~.XX7X7X+X$Xv..X(.,.,.e.L.e.'.,.6.8X X!._.0.VX4.",
"| j.z./.e.q._./.5.+XnXAXoX'.wX4X)._.l.z.e.L./.6X(.!.W.^.(._.`.`.v.:XBXXX+XtX#XJ.P.C s.ZXBXv.x.8.v.O.",
"e e.'.].'.I.`./.q =.;.1.<.A D k :.6.q.x./.z.x.5XVX$XQ.G.>.O...b _ _ ] #.i i G N.L.C d.mXcXZX3Xt.z. .",
"W ~.).0X4XU.).L.=.;., , 4 N J.J.Z :.l.:XBX|.l.l.>.3.Z.p , o o o d d s 5 < r B.dXS ;.xXcXcXcX1Xt.6XO.",
">.}.oX0X[.U.[.S.1 4 , w D J.iXKX< < O ) o.) + + 7 u Z.p q l o.$.' _ R e :.*XR.yXZ k.cXcXcX9X3XY.6XO.",
"0 5.<.L.J.S.P.-.u L.oXGXGXuXyXeXA.^ s ' ) ' ' s 0 3.H./ | ) ) ) ) ) 7 4 E.dXE.- v b.b.i.h.k.H F q.8 ",
"7 6.v S.S $ S.S.SXDXDX0X,.= N P.i E _ ] ' L ' _ 5.6.p Q.W ) $.@ @ #.< V eXN.4 3 ) @ o.g. .A S y 1.+ ",
"X.8X).tXD.> T.P.L.C w D A k N 1.F.X ' g.` L ] $.X.^ G.^.X.) ` y.2.6 * wXrX% k O.) + _ 0.'.[.$X$X(.X.",
"[ 8X~.#XD.t *XS * 2 8 b b 3 N 1.tX, s :X` L ` @ + 2 &XF.z s U @.p a V UXjX; s s @.} j J 4X#XQ.MXOXO.",
"+.5X6.P.M.M.T.r v 1 7  .O.=.u 4 wX2 @ $.R R $.[ o A wXS n l T 5 a B.hXLX<Xk f O @ x = N wXwXQ.MX.X..",
"} 5XL.^.N.M.dXt , c X.} 7 7 ^ F.uX<Xm X 5 ^ ~ n   <X2Xh k 2 6.r m.aXLXV.k +.x (.9.U.G G wX#Xd.ZXBX,.",
"d x.oX$XG n.fXM.& z o.[ 9 X.~.tXrXKXrXD G.Z.,   B KXjX2XH J SX%XaXsXkXt 1  .c FXyXLXR.m.P.~.5.bXBXO.",
"x :X0XJXB.M.fX:.<.0 @ s h.VX{.-.h 2XrXU.*X&XP.H 2XlXkX,XV.E.%XkXsXsXV.Z O.9 >.U.m.aX-Xn.A.~.b.ZXBX4.",
"K z.'.uXD.D.=X>   D v.b.@.R ~ 2 g B J.N a D.gXdX<XB g % % A $ D.sXzX% >.@.X '.y > -X=XB.1.z.v.v.BX4.",
"j qX^.$XD.n.R.> V.iX|.@ I { R  .x  .e.c 1.$ M.&X8.s e *.o R #.A ,XzX  z h.o.'.Z 6 ^ 6.e.t.B $X+X.XO.",
"M 4X).@XG.B.kX,XjXrX4.P @.i.P P } o.!.=.  N y M.n o X R { @.#.c V.V.& o &.%.6Xw R R @.+.m k [.^.oXO.",
"j '.nXMXG.M.R.2X2XJ O P y.( P { h.X ~.D.& N : P.1.>.e 0 } ) R k 2XC.2 #.Q cXx.X [ 9 { { +.c U.[.0X5.",
"s q.VXMXW.r : h H j + @.I L { @.&.o $XG.U.: F U.T.#XF.| } O 5 Z 2XjX4 #.U HXO.s  .s { @.5...[.U. XO.",
"K l.{.c.6.< - F g = z @.I Q y.#.X 6XGXP.gXB.N.: P.[.<.v >.>.;.1.H wX3 7 #.HXP ` d d x &.s.>.'.9.x. .",
"+.:Xc.{.~.q t F g k z R Q Q Q ~ >.PXI.U.eXy > : S Z 1 b F.^.<.n = 1.F & nXd.I I s d n ,.k.>.'.q.6XO.",
"x ZXc..XXX< 4 t - n 0 7 #.! R ! SXtXj 8.E.> $ S G 4 1 z :.G.<.2 0 e V V.P.T Y Y ` s B H J.<.6Xx.x.z ",
"l CXh.}.~.& N A & Z u e ;.W 0 !.OXe b k &Xm.N k u q [ [ 6 i F.>.T < h aX> q ( vX` j h h N.F 6X|.v. .",
"b VXq.].,.& 4 F F.t < < 4 :.;.E X.5.8 e uX-.M +.^ 6 @.} 7 e <.^ 2.$ V.C.> t ( Y x M h 2XK.N 0X(..X4.",
"| j.,.tXU.& Z SXJXP.D.S P.1.*.| z &.0 >.@X| d o.^ ~ ` @.{ O.6.*.< ^.R.C.m.* ~ p.# <XjXjXV.G 0Xr.8XO.",
"q ~.I.J.9.& -.^.^.S.P.R.LXP.u q z { T j.s.0 + ` p.Q I ` @.2.<.Z S.gX> a D.:.E   B rXyXT.y Z tXr. XO.",
"e oX4XJ H & n e 6 r M.E.UXS.3 8 X.T { XXO.[ O { i.u.y.u.&.;.;.A T.K.t p r u 1.A rXY.k 4 < C tX4X6XO.",
"2.6.'.1XpXj 7 X.^ ^ y N.KXg 3 X.O.9 } b.l T W @.] ] ] p.2.e e F V.% u ^ E | S.GX<XN 2  .0  .4X0X|.O.",
"! c.3X3XpXr.@.R 2./ r J.yX= 2 [ X.9 %.0.+ T ~ ! ' ] I ! W , w P.m.: e ! d.>.- KXN 3 l } s 0.nXXX}.O.",
"! bXBX>Xl.:X@.U Q W e wXrX= x + l 0 {.-.9 s R @.` ` R R [ 2 S fXG S.f.p.R o k uXe 5 ) @ . 7.mXd..XX.",
"p.XXx.:X>Xl.U #.! ;.4 rXY.o l l o n %X:.v l [ @.i.u.R 5 z 2 M.KX=XS.5 R o w.GX=.T + $._ . ) d.bXBXO.",
" .;X9Xv.mXxXR R E 3 g iXj M [ 8 N E.2XR.t < X o.) o.X q C L.yXyXB.dXP.L.SX`.z X.P y.` . + 7.7XCX5Xb ",
"j r.9XxXmXxXR R 1 g J iX  M 5.5.K.V.m.E.&X[.+.d s } 7 *.G.P.U.H m.R.hXgXJ.w 2 P P $.` P g.7X3Xr.5X .",
"N I.oX.XbXa.O l m f J 1X= <.~.F.V : > D.gX$Xq.7.s O , <.^.1.A = : t #X#X=   | [ &.p.@.R %.|.9X3X.X .",
"N U.oX.Xc.@.O x M f <X<XN L.^.:.k - m.S.%X-.,.0.+. .;.P.[.A D D k = 9.J.= 2 ,.>.! X.2.W e >.].0X X .",
"h J.U.`.5.7 0 b = J IXjXF F :.q 1.n S A.#XA 1 2 8.b Z F.^.< =.8.o c q.I.,.= 2 n , , ^ 2.E 3.~.L.XX .",
"g 9.e.oX6.5 *.*.J.rXKX<XB t C | O.O.=.u F.-.n 2 8.3 r :.[.q b 9 + x j O.I.D t 1.~.*./ 3.;.6.^.e. X[ ",
"M t.r.0XF.< Z.Z.&XgXD.: - n b +.@ %.2.u u F.<.,.1.k :.F.SX;.5.} &.) @ b '.U.[.JXuXH.*.3.6 ;.).!.|.b ",
"K >X3XDXW.< Z.n.a =Xy t N x s o.` b.#.e u @Xe.D 1 - A.S.$X6 4.} P + [ w.D N N.wXM.* i :.q c ).OX(.z ",
"K :X5X!.H./ Z.n.n.Z.r r ;.b O ) NXcXP 5 *.6.9.k k J.$XQ.*.e X.o.#.U X.k.A t m.A.r * S u 8 w.5X5Xv. .",
". 0.0.2.! 6 p p Z.Z.p 6 E O.a.v.u.i.R 0 u *.).`.4X4X^.A.^ q 9 { xXf.6.6.A S T.yXuXi e q X  .+.} 0.7 ",
"v OXOX{.@XW.@X{.^ ^ ^ 6 ^ E | f.` &.#.W 6 q e._.k w < u F.>.l } 5 ! ~.$XP.F N.N.#Xu >.~.x.5X;Xl.|.O.",
"3.MXnX@X.XbXCXVXT 5.d.s.f.3.^ 2.{ @.T ;.;.;.w.q.b >.:.^.FX).[ &.W s.{.[.S.:.F A u , ~.CX9X:Xr.l.9X4.",
"u +X).j.e.r.|.l.@ } [ 7 6 e / 6.&.%.[ ;.;.q j # s  .q u 3.q # z 5.6.=.4 4 4 - 4 w , k.}.e.z.r.0.5XO.",
"C oX].e.r.r.;X0.%.v.c.s.s.~.{.+XVXCXAXFXtXj.h.7.+.0.6.6.~.-.,.x.(.8X X`.4X4Xq.<.e.^ k.{.XXDX0X_.(. .",
"b 3X3Xq.r.r.I.q.,.(.OXXX.X_.e.e.8.w.6.).@X(.BXNX:X9X0X+XoX~.e.r.3X6Xr.q.'.'.e.oXVX2.c.nX+X0XI.,.j.z ",
"x 9X3Xr.I.3X4Xe.n !. X}.9X6X_.z.qX_.-.L.{.!.:Xv.:Xv.!.!.6.~.|.z.q.z.q.q.r.q.4.XXVXX.5.nX+X].[.0X8XO.",
"8.0._.6X/._.6X`.5.(.`.}.8X6X_. X6X X X).(.}..X9X8Xv.j.(. XOXoX9X|.(._.`. X_./.(. Xk.k.j.k.!./.!.w.h.",
" .z  ...c b  .8 X b c b =.O.b  .| ..c c w c v ..,.c w c ..........v  .....v c | ..8 1 c 8 8 c 8 O.4."
};
