/* XPM */
static char *amF3YWhpcislMjgyJTI5KyUyODElMjk_[] = {
/* columns rows colors chars-per-pixel */
"50 50 256 2 ",
"   c #010216",
".  c #01031D",
"X  c #020A1C",
"o  c #070819",
"O  c #02111A",
"+  c #010624",
"@  c #010924",
"#  c #01042A",
"$  c #020C2B",
"%  c #0B0928",
"&  c #120726",
"*  c #03112C",
"=  c #081329",
"-  c #15162A",
";  c #010332",
":  c #020B33",
">  c #01023B",
",  c #080937",
"<  c #130C37",
"1  c #041333",
"2  c #091638",
"3  c #14183A",
"4  c #102137",
"5  c #24263D",
"6  c #040846",
"7  c #081846",
"8  c #161B49",
"9  c #051655",
"0  c #171E56",
"q  c #130950",
"w  c #251A56",
"e  c #22134E",
"r  c #0D254A",
"t  c #16264A",
"y  c #0A2959",
"u  c #162658",
"i  c #18345A",
"p  c #24274A",
"a  c #2F3259",
"s  c #0D176D",
"d  c #2B1B65",
"f  c #2B1768",
"g  c #042966",
"h  c #1B2766",
"j  c #183667",
"k  c #1B3774",
"l  c #0F2E6F",
"z  c #272768",
"x  c #272B78",
"c  c #392979",
"v  c #27377A",
"b  c #30316D",
"n  c #44397A",
"m  c #1D4570",
"M  c #24457A",
"N  c #374770",
"B  c #2B435F",
"V  c #475477",
"C  c #0B0F9C",
"Z  c #271892",
"A  c #122E90",
"S  c #293787",
"D  c #393883",
"F  c #393798",
"G  c #312F95",
"H  c #0E0FA5",
"J  c #1436AE",
"K  c #3926A9",
"L  c #2935A7",
"P  c #3938AA",
"I  c #3739BA",
"U  c #2E2DB0",
"Y  c #43398E",
"T  c #4539AB",
"R  c #4831B3",
"E  c #284588",
"W  c #34479A",
"Q  c #324D90",
"!  c #194DB3",
"~  c #3A49AA",
"^  c #3955AC",
"/  c #3947B9",
"(  c #3A55B5",
")  c #294BAE",
"_  c #176CBB",
"`  c #366BAF",
"'  c #35669E",
"]  c #424887",
"[  c #464998",
"{  c #4F5697",
"}  c #4A6496",
"|  c #6D7799",
" . c #4746A8",
".. c #544BAB",
"X. c #4855A9",
"o. c #5557A8",
"O. c #4746B8",
"+. c #4A57B9",
"@. c #5857B6",
"#. c #5346B9",
"$. c #665AB2",
"%. c #4667BA",
"&. c #5878BA",
"*. c #546BAE",
"=. c #6765B6",
"-. c #6E70B1",
";. c #674985",
":. c #1738C4",
">. c #1031CA",
",. c #343DC6",
"<. c #473BCA",
"1. c #633EC9",
"2. c #3947C6",
"3. c #3755C7",
"4. c #2D52DA",
"5. c #3459D8",
"6. c #284DCB",
"7. c #336DCD",
"8. c #2D59EA",
"9. c #3975EA",
"0. c #1A48D8",
"q. c #4449C9",
"w. c #455BC5",
"e. c #535AD6",
"r. c #5054CE",
"t. c #6654CD",
"y. c #4764C7",
"u. c #5669C8",
"i. c #5879C8",
"p. c #5569D6",
"a. c #5376D9",
"s. c #446DD7",
"d. c #6969C6",
"f. c #756AC7",
"g. c #6777CA",
"h. c #7976C9",
"j. c #6778D8",
"k. c #7578D8",
"l. c #6865D5",
"z. c #446AE5",
"x. c #5675E6",
"c. c #5070ED",
"v. c #6F75E9",
"b. c #6A5EE9",
"n. c #8478C6",
"m. c #877BD8",
"M. c #8F76CE",
"N. c #917DE6",
"B. c #8F6DB7",
"V. c #238AB4",
"C. c #4E85BF",
"Z. c #778CB1",
"A. c #3093D0",
"S. c #3A90E7",
"D. c #37B0F0",
"F. c #2CA6D6",
"G. c #5994D9",
"H. c #4E8DCE",
"J. c #698ED9",
"K. c #788AD5",
"L. c #6795D7",
"P. c #7391CE",
"I. c #52A1DC",
"U. c #4CA4D4",
"Y. c #6DA7D0",
"T. c #4C84F7",
"R. c #558EEB",
"E. c #7787E9",
"W. c #6C9EE8",
"Q. c #7A95E6",
"!. c #7587FB",
"~. c #6D96FD",
"^. c #799AFB",
"/. c #6887F0",
"(. c #45B6FE",
"). c #52ABEF",
"_. c #69A8FA",
"`. c #7BA6F9",
"'. c #6EAEEE",
"]. c #3DC1FA",
"[. c #59CAEF",
"{. c #73C5EF",
"}. c #8A97B6",
"|. c #8685D6",
" X c #9588D9",
".X c #8699D5",
"XX c #8F90CD",
"oX c #A493D5",
"OX c #94ABCF",
"+X c #B9A9D6",
"@X c #ACAACF",
"#X c #8A89E6",
"$X c #8A85FA",
"%X c #958CF5",
"&X c #8898FC",
"*X c #9598FA",
"=X c #928FE6",
"-X c #A396E9",
";X c #B898E9",
":X c #AE95F4",
">X c #84A6E6",
",X c #98A7E6",
"<X c #87A9FE",
"1X c #99A9FA",
"2X c #89B9FB",
"3X c #98B8FE",
"4X c #97B6E5",
"5X c #ABA6E9",
"6X c #A9A8FC",
"7X c #A8B7FC",
"8X c #B9B7FC",
"9X c #B4ADEB",
"0X c #C5A6EA",
"qX c #C6ACF9",
"wX c #C6B8FF",
"eX c #D8B9FC",
"rX c #D1B5ED",
"tX c #E5BFFC",
"yX c #C8A9E3",
"uX c #96C5DB",
"iX c #99C7F9",
"pX c #95D7FF",
"aX c #8AD2F8",
"sX c #B7C6E8",
"dX c #ACC6FA",
"fX c #B7CAFB",
"gX c #A8D5FF",
"hX c #B9D9FD",
"jX c #B0CCE9",
"kX c #98EFFF",
"lX c #BAE6FB",
"zX c #ABFFFF",
"xX c #B1EEFF",
"cX c #C7C8FC",
"vX c #D5C8FC",
"bX c #C9D6FB",
"nX c #D7D7FD",
"mX c #CBCAE5",
"MX c #E6C7FF",
"NX c #E7DAFE",
"BX c #F5DAFF",
"VX c #ECC6EF",
"CX c #C6E7FD",
"ZX c #D6E8FF",
"AX c #C8FBFF",
"SX c #D4FFFF",
"DX c #DBFEFE",
"FX c #D8F3FF",
"GX c #C9E4ED",
"HX c #E8E6FF",
"JX c #F9EBFF",
"KX c #EDFEFE",
"LX c #E6F9FF",
"PX c #FDF3FF",
"IX c #F2FDFE",
"UX c #F7F6FF",
/* pixels */
"@ + + + + @ # # + 3 # $ + + 4 + @ * + + < +   & o o     X , , > ; # # @ @ . + o o . . + + # # # @ @ ",
"@ @ @ + @ @ + + 1 . @ + | }.V B t * 7 2 # ; 3   o O O o . $ , # ; # # # + + . o o + o + + + # # # @ ",
"+ + @ @ + @ + + 3 . - p nXIXmX9X.X| -.} > # 7 # X X o X o + # # ; @ @ + + + X X X . + + # # # @ # + ",
"@ @ + + + + @ +   @ + | ZXZXZXHXHXnX8XP.' 9 > 7 + + & & . . + # # # # + + X . X X X + + # @ # + + + ",
"# @ @ @ @ + + @ %   p mXPXGXNXmXvXvX7X>X`.%.g > > # & o o   X X @ @ # + + + X + + X X + @ @ + # @ + ",
"@ # # @ + @ + @ - o @XJXPXNXNXVXrXqXbX3XI.'.U.y 6 ; + & &   O O @ + + + @ + + X + + + @ + + # # # + ",
"@ # + @ @ + + + o a UXPXNX+XmXVXtXBXUXhXU.U.).7.y 6 # & & X O O @ @ @ + + @ @ X + @ X + + + @ # + + ",
"+ @ @ + + @ + + o }.JXPX+X@XmXyXVXJXKXAX{.F._ U.g 6 % & & X O O + + @ @ + X @ @ @ @ + @ @ + @ # + + ",
"$ + + . . @ $   a nXNXUX+X+X+XVXJXJXLXSX[.V.A.I.' > e & . % * O +   . = # + * . + . + . + - + + + + ",
". + + @ @ + + @ Z.HXHXHX+X+XrXBXBXJXFXSX{.V.A.I.` > q % + # @ X + + $ @ .   * + * + 1 = + + +   + + ",
"  $ + + 2 + @ t OXZXHXvX+X+XMXBXPXPXKXSXaXV.A.Y.&.> > , # ; @ @ 3     @ * . + 4 * . + 1 . . % + + + ",
". -     = @ 1 } mXbXnX9X9X9XPXPXPXPXFXjXaXU.A.G.L.7 ; , , : @ * . + - @ . * B Z.i + . $ +   - + + + ",
". -   . $ + : N 4XbXIXnXNXvXNXvX+X,X.X*.W.R.W.W.P.g ; > ; # # # @ & @ o B }.OXOXOXN X = $ . -   + + ",
"  & o . $ + @ r -.4XKXcX8X-Xm.$.d.@.u.y./.<X/.J.L.k ; 1 : : # # @   = V GXIXOXOXFXZ.* X =   %   @ + ",
"  o & + @ @ @ ; } .X7Xo.{ ..[ @.O.2.e.x.!.3X^.j.J.Q : r : 2 # ,   5 }.HXIXGX}.hXFX4X2 . 2   o % + + ",
"o .   + . : 2 ; y Z.3X*.X.d.T ..q.,.2.r.r.1X&XQ.Q.} 7 y 7 r 7 7 V OXIXFXKXIXuXmXZXsXu + 2     = + + ",
"+ . . 3 . 2 # : ; *.,Xh.[ Y T 1.P P q./ 2.!.7X&X1X*.i B y y k H.2XgXlXDXKXLXmXHXHX@X| ; < +   O o + ",
", # . % . % + : # M P.K.T Z R K O.P O.2.2.x.&XQ..XP.Q m ' C.G.'.{.gXxXlXDXIXUXJXJX0XM.q > # X O . % ",
"+ = . + + % + 1 : 9 &.*X..G R K R U I I ,.r.v.^.P.>X&.M C.'._.'.aXY.uXSXKXKXLXJXqX5X Xc ; ; @   @ @ ",
". 2 + # % % + # ; > v d.@.K K K K K U <.,.2.v.&XK.K.&.' '.I.D.).{.Y.uXSXDXDXGXbX-.#X=X$.6 6 *   % @ ",
". 3 + . & + 8 8 u h h  .d.T Z R K K U <.<.,.p.*Xj.g.&.C.{.U.D.'.Y.uXlXAXAXDXCX&.y.&X&Xk.6 q 3 . + @ ",
"+ * + + & e | B.XX,Xd.X.l.#.Z K K I ,.2.q.,.e.&Xg.i.J.L.`.).).).Y.gXDXSXSXAXaX! x.<X!.+.6 > & % @ # ",
"+ + # % % a cXcX8XnX6X@...R Z Z K I I ,.q./ q.$Xk.d.g.`.L.).).U.iXCXFXAXgX`.7.7.T.~.3.A 6 # & & % * ",
"@ + % < & a vX8X5XfX7X=.Y R 1.K Z U L L q./ O.k.#XX.o.1XQ.'.Y.G.hXLXhXH.) _ 9.S.9.T.A s 9 > - - = 1 ",
"2 + 3 8 & e JXNXbXbX6X+.Z O.t.Z / A ( ( ) E u.u.d...$.#XK.K.dXdXZXp.A J J _ T.T.9.! s 9 7 5 - O 2 2 ",
"2 + p < < d BXvX-X1X*Xj.O.O.r.L L ^ ( E i.i.%.S k.@...=.=.n.8X7Xe.z.6.J C c._.c.! J s 9 1 O O 4 2 4 ",
": 2 p < e d wXvX|.d.j.E.e.I I O.W ` ` ^ iXaX` k u. .F ..$.n.-Xh.U 8.:.>.H `.`.5.J ! g > 1 7 O = r r ",
", t e q w d  XwX%Xd.w.v.p.L L q.) W ` Y.AXaXU.` ` ( G T ..f.n.@.e.8.>.>.:.~.v.z.u.l 6 9 B N i 2 r r ",
"< p w e d e $.qX8Xj.3.x.x.J J 3.W E C.aXAX{.U.U.R.a.) L T @.n.t.4.0.>.,.2.e.k.%X..> 0 XX.X} E m y r ",
"8 e w d n q Y %X6Xv.w.z.c.2.J 2.+.&.2XpXkX[.U.).)._.5.2.~  ...~ 8.0.8.0.q.v.%XM.z n 9XKX7Xg.` l i i ",
"8 w d d n Z K $.*X&Xp.3.z.z.6.6.j.3XgXaXkX[.D.D.D.).9.9.s./ L A 8.8.8.6.I %X:X-.;.rXPXcXK.i.! g j i ",
"q d d f c Y Y F E.&Xc.J 4.z.4.) E.fXiX'.zX[.F.D.(.(.S.9.5.( ~ ) ! 8.5.w.Z m.;XB.eXBX9X-.&.) A A l i ",
"w f f D n [ o.X.u.^.z.4.:.4.4.5.i.4XaXpXzX[.D.D.D.[.A.0.7.s.) / ( y.u.S s h.qX:XeXeX8X=X*.E l g i i ",
"f f c Y ] ] } X.w.s./.c.:.:.5.J Z.4XgXxXzXD.F.D.D.D.A._ 7.( ~ d.y.g.F S f  X-XeXwX:X:X*X&.k g m j j ",
"x h z v Q *..X>X<X/.x.5.5.6.9.w.>XsXfXhXAX'.).).D.R.7.4.p.l.l.$X6XN.G #.$XeX#X:X#Xl.k.7X1X} m m j i ",
"q z o.XXdXbXCXgX^.~.7.5.iX~.6.a.8XcXbXhXlX'.).)._.S.! 7.$X*X:X:X$Xe.v.$X8Xm.#.p.l.T O.<XgXY.' g j i ",
"s x *.4XhXFXlX3XJ.a.! s.iX3X! a.8XbXZXZXCXW._._.S.! A / &XwXwXqX<.H b.N.%XI Z I l.e.w.j.<X3XC.j M k ",
"j v { &.P.4XiX>XW.%.R.<X~.<Xa.>XbXmXnXFXDX2X_.7.6.! ! w.&X8XvXwXt.H <.N.b.R Z I r.x.x./.^.1XP.M M M ",
"9 Q }.jXhXhXgX>XL.%.<X7XE.J.u.P.CXsXCXSXSX`.G._ _ 7.7.G.Q.dX8X,X1.<.1.N.r.U L p.3.z./.^.<X^.%.E E k ",
"h *.7XFXFXDXFXhX>Xi.Q.~ ^ W S .XjXGXLXDXxXH.H.7.H.R.H.J.Y.5XOX$.N.1.1.1.6XE.p.x.~.x.x.<X<XW.^ E k j ",
"7 b -.fXKXKXLXZXfX6XK.k.g.k.XXXXGXGXjXuXOXY.L.G.G.W.W.P..XOX@X;X:XM.t.m.#Xk.J.&X<X3X`.~.p.y.( ^ v j ",
"> 8 V | }.OXXXOX=X.X=X=X6X8X8XcXmXmXGXjXsXiX4X>XdXfXhX8XfXbXbXtXtX:XoX8X8X1X<X3X<X^.~./.p.3.^ W v l ",
", , 3 t a N ;.} o.=.f.|.=X-X5X9XmXrXnXNXHXnXnXcXnXHXJXNXBXBXtXtXtXqX8XwXbX8X1X3X^./.x.a.s.y.~ S h h ",
", , < 8 p a b Q { o.=.d.n.|.oXoXyXrXtXMXMXBXNXNXBXBXBXBXMXMXtXtXqX:X5X5X7X,X>XK.E.J.p.y.u.%.W k h 0 ",
"% # % 3 5 u a N [ X.@.=.f.n. X5X0X;X0X0XrXeXtXeXtXMXtXeXtX0X0X;X:X=X X|.|.|.K.g.g.g.u.+.X.Q E k u 9 ",
"# + @ @ * r i b z S [ X.@.-.-.n.M.N.;X;X0X0X0XyX0X0X0X;X;XN.;XN.#Xm.k.f.=.f.=.d.@.+.+.~ S S j l u 7 ",
"@ @ @ @ @ 1 r i x S F X.X.o.o.-.k.m. X X-X XoXoXoXoXM.M.M.f.f.f.l.t.#.@.@.@.....T ~ W S x y y r 8 6 ",
"X + @ = * 2 7 u h l x S Q [ } o.d.l.f.h.h.n.n.B.| -.-.$.$...T  .~ P T O... .F F Y G x x h y r 7 7 , ",
"+ @ @ @ @ # 1 2 r u z k b E ] ] o.o.@.=.=.=.=.=.o.o.{ [ Y c c D x S S x S S c x x x h h 0 7 7 7 : : ",
"+ @ @ @ + @ : 2 3 r u z b b Q Q [ [ { o.o.o.o.{ [ [ Y c b b x z d 0 h h d h z h z h 0 0 9 7 7 2 : : "
};
