/* XPM */
static char *_29db8413d484684ee110f1cdfe725cePc6FLoYoWpFaSQZO[] = {
/* columns rows colors chars-per-pixel */
"50 50 180 2 ",
"   c None",
".  c #353A39",
"X  c #542D18",
"o  c #573119",
"O  c #5E321D",
"+  c #63351E",
"@  c #463527",
"#  c #4C3B2E",
"$  c #583926",
"%  c #513D2D",
"&  c #513F34",
"*  c #663520",
"=  c #6A3722",
"-  c #6E3A23",
";  c #743C26",
":  c #783F26",
">  c #773C28",
",  c #7B3F29",
"<  c #56412E",
"1  c #5B412E",
"2  c #4B4036",
"3  c #49423A",
"4  c #564333",
"5  c #594434",
"6  c #5E4934",
"7  c #5A4439",
"8  c #5B4A3A",
"9  c #60412B",
"0  c #6C4229",
"q  c #6E4222",
"w  c #7B4326",
"e  c #7D4129",
"r  c #76482D",
"t  c #71442C",
"y  c #624D37",
"u  c #6F4930",
"i  c #624B3B",
"p  c #6A4E3E",
"a  c #7D4C31",
"s  c #754932",
"d  c #685036",
"f  c #6C543A",
"g  c #7E5135",
"h  c #755A3D",
"j  c #71553A",
"k  c #3F4442",
"l  c #414543",
"z  c #454A46",
"x  c #4B4E47",
"c  c #474C49",
"v  c #494E4B",
"b  c #554C43",
"n  c #5B4E41",
"m  c #4D514D",
"M  c #52524D",
"N  c #5B564C",
"B  c #4F5550",
"V  c #525652",
"C  c #555A54",
"Z  c #585C56",
"A  c #5A5E59",
"S  c #625245",
"D  c #615649",
"F  c #69594E",
"G  c #755845",
"H  c #765E4A",
"J  c #755644",
"K  c #635D53",
"L  c #5E625C",
"P  c #676357",
"I  c #61655E",
"U  c #6C655C",
"Y  c #626660",
"T  c #656A63",
"R  c #696D65",
"E  c #676D68",
"W  c #6B6F6A",
"Q  c #6D7067",
"!  c #6D726A",
"~  c #72766C",
"^  c #74786E",
"/  c #727570",
"(  c #767A71",
")  c #7A7D74",
"_  c #777878",
"`  c #7C7F7B",
"'  c #84452C",
"]  c #89462E",
"[  c #864C2A",
"{  c #8C4C2E",
"}  c #82502E",
"|  c #8B512C",
" . c #91542E",
".. c #955D2F",
"X. c #8F4D30",
"o. c #894431",
"O. c #944D32",
"+. c #845033",
"@. c #8D5837",
"#. c #945231",
"$. c #9C5334",
"%. c #955930",
"&. c #9C5B34",
"*. c #9F5239",
"=. c #A15736",
"-. c #A35C36",
";. c #A95E37",
":. c #A45738",
">. c #A65D39",
",. c #AA5D3A",
"<. c #9D6234",
"1. c #9E623E",
"2. c #A36336",
"3. c #AB6737",
"4. c #A66937",
"5. c #A66439",
"6. c #AD643A",
"7. c #AE6B3A",
"8. c #B2653D",
"9. c #B46C3D",
"0. c #BA6C3E",
"q. c #AD713A",
"w. c #B5733D",
"e. c #BB743E",
"r. c #B7793D",
"t. c #BA793F",
"y. c #825E4A",
"u. c #85604C",
"i. c #8A654D",
"p. c #9F724B",
"a. c #AC6C40",
"s. c #B46A40",
"d. c #BC6D41",
"f. c #B86442",
"g. c #BD7341",
"h. c #BE7A41",
"j. c #837164",
"k. c #9B7B64",
"l. c #C06B45",
"z. c #C27543",
"x. c #C97746",
"c. c #C37A43",
"v. c #CA7D47",
"b. c #C87349",
"n. c #CD7E49",
"m. c #7D8076",
"M. c #7E8379",
"N. c #7E827A",
"B. c #818378",
"V. c #81857A",
"C. c #82877D",
"Z. c #82857B",
"A. c #85897F",
"S. c #A38D7E",
"D. c #C38243",
"F. c #CB8646",
"G. c #CC8A46",
"H. c #CE8149",
"J. c #CE8149",
"K. c #CF8B49",
"L. c #D2844B",
"P. c #D4864D",
"I. c #D2844B",
"U. c #D8854F",
"Y. c #D6884D",
"T. c #D58A4C",
"R. c #D98C4E",
"E. c #D7914B",
"W. c #D9914E",
"Q. c #D98750",
"!. c #DB8C51",
"~. c #DD9251",
"^. c #E19554",
"/. c #868A81",
"(. c #898D81",
"). c #858788",
"_. c gray51",
"`. c #928E8B",
"'. c #B49684",
"]. c #B6A499",
/* pixels */
"                                                                                                    ",
"                                                                                                    ",
"                                                                                                    ",
"                                      ~ /.A.C.V.C.C.) L                                             ",
"                                      ( M.V.B.B.( Q ! A                                             ",
"                                      Q ) ) ) B.~ E R B                                             ",
"                                      L ( ( ( m.( ! Y z                                             ",
"                                  L A C ^ ) ^ ) ( / R V E                                           ",
"                    Y R       Y / m.! m R ~ ! ( ( ) Y ! /.( / C     ) Y                             ",
"                  ! m.m.T C ( M.( ( ! B R m.) M.) ) Y ( ( Q ( ( Z B.A.A.R                           ",
"                E ( ( ^ ^ E T m.m.m.~ A Y ( _ _ ( ! L ) ( ( ! Y R (.A.Z.m.I                         ",
"                E ^ ( ( ( m.L Q ^ T n i p y.J u.u.J p S T ! Q Y Z.Z.Z.C.Z.R                         ",
"                  L ( ^ ^ m.( m 8 a +.$.=.,.X.a.f.1.,.#.+.i M ) A.B.B.m.R                           ",
"                m I I ( ^ ^ N $ #.5.-.5.a.s.<.h.l.g.d.a.8.| s K ! ( m.Y E M                         ",
"                ( M.Y I T b 0 } 1.s.8.g.c.c.a.H.P.n.n.b.h.&.s.t b A A ~ V.R                         ",
"              Y m.( ( C 3 t &.&.6.c.c.H.H.H.a.!.!.Q.L.L.H.5.b.7.a & ! V.A.m.I                       ",
"            l R ^ ) ` N 0 2.9.2.g.L.H.H.P.P.h.~.~.R.P.P.T.9.H.h.s.+.D m.N.m.R l                     ",
"            Y I T ^ Q 9 -.8.e.7.h.T.L.T.T.R.r.^.!.U.P.P.P.r.!.v.h.8.g U ^ Y L C                     ",
"            ^ ^ ^ Q n | 7.z.v.r.c.T.T.R.R.!.t.~.!.I.I.P.P.w.T.H.c.h.5.8 L ^ ^ T                     ",
"            ^ ^ ^ R u 2.g.v.I.z.G.!.!.W.T.T.r.~.T.I.I.P.P.r.T.K.J.c.s.g R ^ ~ ~ Z                   ",
"          v ^ ~ ~ P @.w.c.I.I.e.G.R.!.!.P.I.e.W.Y.I.I.I.P.r.T.F.D.c.g.1.P ~ ~ ^ M                   ",
"          L R Y I 8 5.z.J.I.R.c.K.R.T.T.I.I.w.~.R.P.I.R.E.r.W.I.H.H.z.9.8 L Y Y L                   ",
"      L ( C.N.C.) 6 e.I.I.R.R.v.T.~.T.T.I.T.h.W.R.R.R.R.W.t.^.Y.Y.P.J.w.y ! M.M./.V.~ v             ",
"      ! ( ( ! Q Q y z.J.I.T.R.c.K.!.L.P.P.I.h.W.R.R.R.R.R.t.^.I.L.Y.L.c.j ~ ) M.M.^ Q v             ",
"      / ( M.C.) Q y t.I.I.T.T.c.T.R.I.I.I.I.r.E.R.W.R.Y.I.t.^.Y.I.I.I.I.h ( ^ m.B.) ~ c             ",
"      R ( ) ) ) Q y h.I.I.Y.I.h.K.R.I.I.I.I.e.E.R.~.R.I.I.t.^.I.F.I.I.T.h M.( ) ) ( R c             ",
"      L R T R ~ R y e.n.n.Y.Y.z.K.R.J.J.J.J.r.E.I.R.!.U.I.t.^.I.J.J.I.E.h ( ^ Q ~ T L c             ",
"      v V V C C M y z.J.I.I.U.z.K.T.J.J.J.I.w.T.U.I.R.I.I.e.~.n.J.J.I.T.f C Z C V v v l             ",
"          V M.C.Q y e.I.I.I.I.e.F.T.n.v.J.J.q.T.I.J.I.J.n.q.R.n.v.n.n.K.d W ` ^ V                   ",
"          A /./.~ y h.J.I.I.I.e.D.P.n.J.J.I.q.T.I.J.I.J.J.q.T.v.v.n.n.I.f C.( ^ V                   ",
"          V ( B.^ d z.I.n.I.I.t.F.I.J.J.J.J.e.I.n.n.J.n.n.w.E.c.g.z.z.F.h ` ( ^ Z                   ",
"          M ~ B.Q y z.n.J.I.H.z.F.I.J.J.I.J.e.Y.n.n.v.n.n.r.R.7.S.].'.D.h ~ R T V                   ",
"          V ~ Q Y y z.v.J.J.J.w.D.I.n.J.I.I.q.I.n.J.I.n.J.q.T.[ N ).U r.h E E L m                   ",
"          c Z C v y z.J.J.J.J.9.D.U.J.J.I.I.q.T.I.J.I.I.J.q.K.i.~ _.`.p.6 C L C m                   ",
"      A ~ ( ( ^ E y h.J.v.v.J.e.F.R.I.J.I.I.w.W.I.J.I.I.I.q.D.j.A l W k.4 E ~ ~ Q Q Y m             ",
"      R m.m.B.B.! y e.n.v.v.v.w.D.U.J.I.n.U.5.I.I.n.J.n.J.w.h.F K M V H 4 ( Q ~ m.M.~ c             ",
"      Q ( M.B.^ R y e.v.v.v.v.3.h.U.n.n.n.I.<.J.J.c.J.v.v.4.c.y _ ` ! 1 < ) U ~ Z.Z.~ v             ",
"      ! ) V.B.~ E y 0.v.z.z.z.-.e.n.x.n.v.I.2.J.v.c.x.x.c.<.c.q & & 1 | 6 N.) ) B.( Q m             ",
"      W m.m.) ~ Y y 0.x.l.d.8.&.w.n.z.v.z.x.&.J.x.g.x.g.e...z.3.f.8.9.t.6 ` M.m.B.^ R v             ",
"      L ! ! Y I A y 8.l.0.8.8. .q.b.0.x.l.z...c.0.3.0.0.0. .0.3.0.,.>.w.4 L Q E ~ T C k             ",
"      c m m L T A 5 :.8.:.,.,.{ 7.l.8.0.8.0. .z.8.-.6.6.;.| 8. .&.{ | 3.4 V Y Y M l .               ",
"          V ( m.^ 7 O.=.=.=.=.[ 5.f.>.8.;.8.{ e.;.=.:.:.-.[ 8.]  .[ { -.4 ( m.( C                   ",
"          C ~ ( ~ 7 X.O.O.O.O.w &.,.*.=.:.;.{ 8.=.#.$.$.O.w -.w e > e &.y M.^ ^ C                   ",
"          C ) ~ ! 4 ' ' ] ] ] - X.*.X.O.$.O.' -.O.] [ ] [ ; X.; > w ; [ 4 ( ^ ( A                   ",
"          Z ( ~ Y & > , ' e : + ' O.' o.X.' , :.' : e ' , * ' ; ; ; ; w # Q ( m.I                   ",
"          V Y Y A & ; ; - : - + e o.> , ' ' ; *.e ; ; > ; O , - - ; + w < Y ^ ( A                   ",
"          k c c l # = = + = + o = ; = = - = + e - = + + + X = O O + + + @ l c m c                   ",
"                                                                                                    ",
"                                                                                                    ",
"                                                                                                    "
};
