/* XPM */
static char *_7dc12c0a6f04d9ac015050c7bcf271boikTUEDCnRKWe8rj[] = {
/* columns rows colors chars-per-pixel */
"50 50 232 2 ",
"   c #000000",
".  c #090705",
"X  c #0D0905",
"o  c #040609",
"O  c #0A070B",
"+  c #05080A",
"@  c #0A0B0C",
"#  c #110C06",
"$  c #120E09",
"%  c #15130C",
"&  c #1B150D",
"*  c #1B180F",
"=  c #0D0E11",
"-  c #130E12",
";  c #0B1116",
":  c #0C151A",
">  c #151415",
",  c #1A1514",
"<  c #171A12",
"1  c #1E1914",
"2  c #141418",
"3  c #1F1718",
"4  c #1A1B1B",
"5  c #231A0E",
"6  c #24180C",
"7  c #211614",
"8  c #241C13",
"9  c #2A1D12",
"0  c #231619",
"q  c #231C1A",
"w  c #2B1B1B",
"e  c #311C1D",
"r  c #2C2214",
"t  c #24211B",
"y  c #2C231B",
"u  c #332415",
"i  c #392917",
"p  c #32241A",
"a  c #362C1C",
"s  c #3B2C1C",
"d  c #191C20",
"f  c #271F20",
"g  c #2D1D21",
"h  c #321D23",
"j  c #3A1F24",
"k  c #262424",
"l  c #2B2424",
"z  c #2E2A24",
"x  c #2B292A",
"c  c #302522",
"v  c #322C23",
"b  c #3C2A27",
"n  c #322E2D",
"m  c #393228",
"M  c #3B322E",
"N  c #2F2F33",
"B  c #332E32",
"V  c #363535",
"C  c #3B3432",
"Z  c #3B3C3B",
"A  c #432E1D",
"S  c #47341D",
"D  c #412B2A",
"F  c #472829",
"G  c #443223",
"H  c #4D3C24",
"J  c #43352A",
"K  c #493929",
"L  c #553C27",
"P  c #5A2D31",
"I  c #413632",
"U  c #473635",
"Y  c #4D3B33",
"T  c #443D3A",
"R  c #513E33",
"E  c #612C31",
"W  c #4F402E",
"Q  c #534124",
"!  c #53422C",
"~  c #5A432B",
"^  c #56482F",
"/  c #5C492E",
"(  c #4B4439",
")  c #534332",
"_  c #5D4433",
"`  c #5A4737",
"'  c #634C2D",
"]  c #6B4E2E",
"[  c #6C5326",
"{  c #725724",
"}  c #644D33",
"|  c #654938",
" . c #6C5335",
".. c #66553A",
"X. c #6B553A",
"o. c #775935",
"O. c #745C3C",
"+. c #7C5D39",
"@. c #6F603F",
"#. c #75613E",
"$. c #7B623D",
"%. c #4D3B40",
"&. c #4A4747",
"*. c #544B43",
"=. c #564B47",
"-. c #58504F",
";. c #575757",
":. c #684A42",
">. c #6D424E",
",. c #695748",
"<. c #745D42",
"1. c #745E47",
"2. c #6B4C54",
"3. c #746142",
"4. c #7D6544",
"5. c #7D6947",
"6. c #786555",
"7. c #69696A",
"8. c #787878",
"9. c #816337",
"0. c #896833",
"q. c #84643A",
"w. c #A37D3A",
"e. c #846B44",
"r. c #8B6E45",
"t. c #866948",
"y. c #856B4C",
"u. c #926E46",
"i. c #8D724B",
"p. c #967246",
"a. c #9D7946",
"s. c #93744B",
"d. c #997548",
"f. c #96794D",
"g. c #9B7B4D",
"h. c #836958",
"j. c #8D7656",
"k. c #977953",
"l. c #A17F52",
"z. c #A47F5B",
"x. c #897467",
"c. c #947D6A",
"v. c #CA9F3B",
"b. c #99804D",
"n. c #9D835C",
"m. c #A9844D",
"M. c #A38657",
"N. c #A98553",
"B. c #AD8C55",
"V. c #AA855A",
"C. c #AB8A5A",
"Z. c #B68E56",
"A. c #B98E54",
"S. c #B48E5A",
"D. c #B98D5A",
"F. c #AB905F",
"G. c #B59053",
"H. c #BB9154",
"J. c #BA9B53",
"K. c #B6905A",
"L. c #BB9259",
"P. c #988572",
"I. c #AAA26C",
"U. c #C29553",
"Y. c #C1955B",
"T. c #C79958",
"R. c #CB9C5A",
"E. c #D39D56",
"W. c #CDA15E",
"Q. c #DBA857",
"!. c #D2A35B",
"~. c #DAA65B",
"^. c #DCAD5C",
"/. c #E0AC5E",
"(. c #E8B35E",
"). c #C89B62",
"_. c #C8A465",
"`. c #D5A463",
"'. c #D7A865",
"]. c #DBAA62",
"[. c #D5AC68",
"{. c #DBAC69",
"}. c #D4B879",
"|. c #E3B264",
" X c #EBB464",
".X c #ECBA66",
"XX c #EAB36B",
"oX c #E9B76A",
"OX c #F1B767",
"+X c #F3BC65",
"@X c #FEBF65",
"#X c #F3BD6A",
"$X c #FBBF6A",
"%X c #FBC25E",
"&X c #F6C266",
"*X c #FDC164",
"=X c #F5C36A",
"-X c #FBC26A",
";X c #F4C86B",
":X c #F9C96E",
">X c #E7C579",
",X c #FBC771",
"<X c #F4CE75",
"1X c #FACB73",
"2X c #F6CE79",
"3X c #FACD7B",
"4X c #EED07E",
"5X c #F7D27A",
"6X c #FAD37C",
"7X c #817F80",
"8X c #868684",
"9X c #969998",
"0X c #B09984",
"qX c #A9A8AA",
"wX c #B5B2B3",
"eX c #CBAA93",
"rX c #E5CE86",
"tX c #F4D387",
"yX c #F9D683",
"uX c #FADC85",
"iX c #F7DB88",
"pX c #E6C29E",
"aX c #F7DF92",
"sX c #F7E18A",
"dX c #FBE48D",
"fX c #FDE493",
"gX c #F8E397",
"hX c #FCE994",
"jX c #FBEA99",
"kX c #F1CDAB",
"lX c #C9CBCB",
"zX c #D3D6D6",
/* pixels */
"                                                                                                    ",
"                                                                                                    ",
"                                                                                                    ",
"                                . X * 8 5 & % X . . X # % & & # .                                   ",
"                          $ a X.a.G.`.!.'.!.R.A.g.0.m.Z.Y.).W.H.m.$.S * .                           ",
"                      %  .H.oX-X*X*X-XOXU.a.u.Z.oX=X'.9./ +.T.*X*X-X&XW.+.9                         ",
"                  . a m.#X-X*X*X-X$XZ.L G ] d.<.] |.+X^.B.} A B.-X@X-X*X#X'.@.#                     ",
"                % e.V.].$X@X*X*X*X].o.d.'.*X=Xo.q..X*X-X*X#XV.a.#X@X$X-X&XtXaXI.v                   ",
"              % k.i.F.sX5X-X*X*X@X+XoX-X*X%X*X X=X*X*X*X%X@X@X@X*X*X1X5X4XuXhXfX}.H                 ",
"            & j.o.5.gXjXhXyX6X:X~.>X6X-X*X*X*X*X*X*X%X*X*X@X*X&X1X6XuXjXiX2XyX<X]._.~               ",
"          6 n.$.~ rXsXsXjXfXhX_.r.tXfX2X1X:X1X-X-X;X,X-X:X1X-X5XaXrXrXjXiX;X&X;X`.q._.L             ",
"          i.n.i T.1X;X4XfXjX>X' M.hXjXfXiX5XdX2XsXiXfXuXiXdX<X5XgX[.d.4X6X;X*X*X$Xo.+.).8           ",
"        ^ _.A #.=X*X*X&X1X3Xb.A }.2X6XfX3XyXdX2XuXaXfXuXdXfX5X&X:X{.L W.,X*X@X@X$XZ.u S.s..         ",
"      r Y.4.u `.*X*X%X*X*X|.G ] =X*X$X1X-X,X,X;X*X,X,X@X,X,X*X%X+XXXS p.-X@X@X@X*X|.S ! [.S         ",
"  o ; o.`.i o.-X*X*X*X@X&Xm.5 a.-X@X@X@X@X@X@X@X@X@X@X@X@X@X*X*X@X#X! ~ +X@X@X@X$X-Xo.8 S.r..       ",
"  ; r J.s.8 G.*X*X@X*X@X#X .9 Y.*X*X@X@X@X@X@X@X@X@X@X@X@X@X*X*X@X#X' i '.*X$X@X@XE.l.& O.F.5       ",
"o > H _.~ 1 Z.-X*X@X@X@X|.G b {.*X@X@X@X@X@X@X*X@X@X@X@X@X@X*X*X%X-X .5 Y.-X-X@X+Xo.M.u G F.!       ",
"o , X.K.u & a.*X@X@X@X-X`.r H XX$X@X@X*X@X@X@X@X@X@X@X@X@X@X@X*X%X-X+.6 m.*X*X*XXXS y.J q g...      ",
"  & 5.5., & o.&X*X@X*X@XZ.7 ^ #X*X*X@X@X@X@X@X@X@X@X@X@X@X*X*X*X*X-X$.% d.-X*X*X{.a ..) 4 e.5..     ",
"  < 5.X.< < L oX*X@X-XQ.g.1 } $X%X*X@X*X@X@X@X@X@X@X*X*X*X+X@X*X*X-X9., q.-X*X*XW.r ^ ` , #.s.#     ",
"o % X./ v c p S.|.$X#XR.i.1 } #X*X@X@X+X@X@X@X@X@X@X@X*X+XE. X%X*X@X9.> 9.+X-X-XK.5 ^ :.< 3.y..     ",
"  = W ^ ! ) 1 <.R.-X.XU.r.8 Q oX*X@X$XQ.E.OX%X+XOX$X@X*X'.A.E.+XQ./.O., +.+X(.XXr., ` ,.< #.$..     ",
"  . y C  .t.1 K S.|..XU.g.r s R.*X@XOXU.A.E. XR.T.+X$XOXU.Z.A.R.A.).} 7 t.|.E.).} , <.1.6 5.^       ",
"  o < t X.C.m q s.T. XU.N.m y m.(.=X~.A.A.G.H.Z.Z.Q.$X`.Z.S.D.S.S.D.K 9 s.T.A.S.J w s.X.9 3.9       ",
"    + > ` K.4.6 } K.R.L.D.` 8 p.U.^.U.Z.Z.Z.Z.Z.Z.H.'.H.Z.Z.Z.D.H.M.b s V.A.A.f.w G C.} t y         ",
"      ; y y.C.Q p g.Z.S.H.t.6 O.A.A.Z.S.H.Z.D.Z.Z.Z.H.Z.Z.Z.Z.D.H.b.r } D.A.L.<.5 <.K.~ t +         ",
"      o ; y 3.k.m  .Z.G.H.B.A ! Z.A.Z.Z.B.S.A.Z.Z.Z.Z.Z.Z.Z.Z.Z.Z.e.w k.L.A.B.H G B.C.G 1 .         ",
"          + > W 1._ l.V.p.l.t.i z.D.Z.S.t.k.G.Z.Z.Z.Z.Z.Z.Z.A.D.D.] / C.Z.D.f.G j.g.) 2 @           ",
"            o @ t Y O.) v m ..W q.D.L.D.^ ' Z.A.Z.D.Z.Z.Z.Z.A.Z.V.] k.L.G.K.r.,.` 8 @ o             ",
"                o @ - 3 &.&.V z R k.O.t.J r i.K.H.Z.H.A.Z.L.H.H.V.l.Z.f.4.} a $                     ",
"                      . ; N -.&.z r Q S t < G p.l.l.g.g.p.u.e.$.X._ G 8                             ",
"                          o 4 B t [ v.0.q 4 > t y v v n M C x < , > .                               ",
"                          O 2 1 [ w.{ u Z ( v 4 4 Z 8X9X8X7.x 2 g b > o                             ",
"                        o 0 D r [ L 0 n ( =.I 1 v k k l 0 2 h b 3 >.P - o                           ",
"                      . q g x 7 e 0 l V C V t 9 | D , 4 2 g >.>.4 k g f ; @                         ",
"                    o > ;.qX;., %.>.h q B x * G _ 0 3 f , 0 j >.b d 7X9XN : o                       ",
"                    + q c ;.&.2 F D g w q < t ( y , 1 u K Y q h B d ;.Z k d @                       ",
"                  X v c.h.k 2 g b G R >.U , q q 8 l U R P e 4 l g 2 t ,.P.h.1 o                     ",
"                  = ,.kXeXm r ` | Y D l 7 , , > l M v 4 > t T =.T g z P.pXpXJ .                     ",
"                  @ b P.eXC 0 y z Z Z V B n x z l , , d < x U ( =.*.v J 0Xh.q o                     ",
"                    o $ y 0 x 7X9XlXzXzXzXlXwXqXwX7X%.k q k C I T *.*.k 4 + o                       ",
"                          @ 2 x N &.-.;.7.7.8.7.8.8.;.T x , q x m C C n =                           ",
"                            o o > 2.x.6.6.*.4 @ O = q ,.h.x.x.R 1 > 2 > o                           ",
"                              o : M 1.y.6.Y <   o o 0 R 6.h.1.b = o                                 ",
"                                @ 1 F E P w @       = e P E F & o                                   ",
"                                  @ w j e >         o - w e & .                                     ",
"                                    o . o o                                                         ",
"                                                                                                    ",
"                                                                                                    ",
"                                                                                                    "
};
