/* XPM */
static char *cGl4aWwtZnJhbWUtMCslMjgxMCUyOSslMjgxJTI5[] = {
/* columns rows colors chars-per-pixel */
"50 50 222 2 ",
"   c #000000",
".  c #0A0705",
"X  c #040609",
"o  c #06090B",
"O  c #0B0B0B",
"+  c #150D07",
"@  c #13110D",
"#  c #1C160D",
"$  c #060D14",
"%  c #0C0E12",
"&  c #160F13",
"*  c #0D1114",
"=  c #0F1519",
"-  c #151415",
";  c #1A1514",
":  c #1B1915",
">  c #13151B",
",  c #181819",
"<  c #1C1B1B",
"1  c #231B0E",
"2  c #291C0F",
"3  c #231415",
"4  c #241C14",
"5  c #291916",
"6  c #241C1B",
"7  c #2C1A1B",
"8  c #331A1C",
"9  c #2B2214",
"0  c #26211B",
"q  c #2B231B",
"w  c #332414",
"e  c #352816",
"r  c #362C1B",
"t  c #3C2B1C",
"y  c #3D311D",
"u  c #271E23",
"i  c #242423",
"p  c #2A2321",
"a  c #2A2828",
"s  c #352625",
"d  c #392C24",
"f  c #3A262B",
"g  c #322A29",
"h  c #3B3223",
"j  c #37342C",
"k  c #3B322E",
"l  c #312F34",
"z  c #3B3535",
"x  c #451F1F",
"c  c #442B1A",
"v  c #42321C",
"b  c #4C391E",
"n  c #533B1C",
"m  c #421E29",
"M  c #492728",
"N  c #5A2B26",
"B  c #433522",
"V  c #483627",
"C  c #4B3B23",
"Z  c #513C23",
"A  c #4D2C36",
"S  c #562D37",
"D  c #483936",
"F  c #573339",
"G  c #622E36",
"H  c #67393F",
"J  c #793A3C",
"K  c #5B4326",
"L  c #544229",
"P  c #59452B",
"I  c #5D492B",
"U  c #4A423B",
"Y  c #574837",
"T  c #634D2E",
"R  c #694B2B",
"E  c #69522C",
"W  c #76522C",
"Q  c #644D32",
"!  c #644E3A",
"~  c #6B5638",
"^  c #745A36",
"/  c #755939",
"(  c #7A623B",
")  c #7C633B",
"_  c #6A3A44",
"`  c #354451",
"'  c #2E506B",
"]  c #224B73",
"[  c #484242",
"{  c #594D44",
"}  c #5C574F",
"|  c #585555",
" . c #654849",
".. c #76404C",
"X. c #685848",
"o. c #75514E",
"O. c #796548",
"+. c #676059",
"@. c #796659",
"#. c #546875",
"$. c #636462",
"%. c #7A6B65",
"&. c #71706F",
"*. c #7B7878",
"=. c #8B3B39",
"-. c #84673B",
";. c #93713F",
":. c #823C41",
">. c #864856",
",. c #994C5B",
"<. c #886B45",
"1. c #8B7148",
"2. c #91754B",
"3. c #957748",
"4. c #8A7457",
"5. c #957F51",
"6. c #A27B48",
"7. c #A27D4A",
"8. c #A37F53",
"9. c #985364",
"0. c #A75367",
"q. c #B6576C",
"w. c #AE5A70",
"e. c #B45972",
"r. c #8A7564",
"t. c #9E8054",
"y. c #A5834D",
"u. c #AA844C",
"i. c #B2884A",
"p. c #BF914D",
"a. c #A58353",
"s. c #AA8756",
"d. c #AC8A54",
"f. c #B68C57",
"g. c #B89359",
"h. c #9B846E",
"j. c #A78C74",
"k. c #AB9276",
"l. c #BBA176",
"z. c #C18E55",
"x. c #C59956",
"c. c #CB9C5C",
"v. c #CEA15C",
"b. c #D6A55D",
"n. c #E9B45E",
"m. c #C19C63",
"M. c #CCA262",
"N. c #CEA368",
"B. c #D4A662",
"V. c #DBAD64",
"C. c #DCB165",
"Z. c #C9B379",
"A. c #E3AE62",
"S. c #E1AD6A",
"D. c #E3B265",
"F. c #ECB663",
"G. c #ECBA65",
"H. c #E5B46B",
"J. c #EAB56A",
"K. c #ECB86A",
"L. c #F1B666",
"P. c #F4BC66",
"I. c #FEBF65",
"U. c #F4BC6B",
"Y. c #FCBE69",
"T. c #FDC15F",
"R. c #D8C27F",
"E. c #FCC164",
"W. c #F5C26B",
"Q. c #FBC26A",
"!. c #F8C66C",
"~. c #F9C471",
"^. c #F6C975",
"/. c #FACA73",
"(. c #F7D279",
"). c #FAD27A",
"_. c #517390",
"`. c #677584",
"'. c #688197",
"]. c #528BB4",
"[. c #7395AA",
"{. c #71A0BF",
"}. c #5697C5",
"|. c #76AAC8",
" X c #898686",
".X c #979595",
"XX c #B89C85",
"oX c #BDA286",
"OX c #94A6B1",
"+X c #AAA8A8",
"@X c #B8B7B9",
"#X c #C99284",
"$X c #C8A98C",
"%X c #D4A78D",
"&X c #CFAD92",
"*X c #D7B899",
"=X c #DCBC9B",
"-X c #E1BE9B",
";X c #C0BABE",
":X c #BDC0BF",
">X c #DAC980",
",X c #FAD581",
"<X c #FBDB85",
"1X c #F8DA89",
"2X c #EAC59D",
"3X c #EBD893",
"4X c #FCE38D",
"5X c #FCE594",
"6X c #FDE995",
"7X c #FAE59A",
"8X c #FDEA9A",
"9X c #FCEB9C",
"0X c #E6C5A5",
"qX c #F7CAA7",
"wX c #FCD3A5",
"eX c #F3D2A8",
"rX c #FDD3AA",
"tX c #FCEBA1",
"yX c #92B8CF",
"uX c #CFD4D5",
"iX c #DDE0DA",
"pX c #E6ECE4",
/* pixels */
"                                                                                                    ",
"                                                                                                    ",
"                                                                                                    ",
"                                                                                                    ",
"                                                                                                    ",
"                                  . ; v P T I K I I I Z r 1 + - O O X                               ",
"                            X 4 ~ u.V.L.I.I.T.I.Y.Q.Q.P.G.b.z.f.7.<.T v #                           ",
"                    . 4 r C / s.V.L.I.I.I.I.I.I.Y.I.I.E.E.E.E.E.Q.Y.Y.D.g.( w .                     ",
"                4 R u.x.x.v.v.n.Q.Y.E.E.I.I.E.I.I.E.E.E.E.E.Y.I.E.Q.!.(.<X4XR.O.4                   ",
"              L x.P.E.P.I.E.E.E.E.I.I.E.I.I.I.E.I.I.E.Q.E.Y.~././.W.<X8X8X8X8X7Xl.B                 ",
"            Q J.E.E.E.Q.!.!.!.!.E.W.!./.!./.E.E.E.(.).<X<X~.<X8X4X(.4X8X5X7X8X7X9XZ.v               ",
"        O Q J.E.Y.I.E.E.).).<X).^.4X5X5X4X4XQ.E.^.4X9XtX7X~.,X8X8X5X8X8X3Xs.3X5X4X).c.w             ",
"      O Z S.Q.I.E.I.I.Y.1X8X4X<X^.5X8X8X8X4XQ.P.(.6X5X9X9X,X^.5X8X8X5X4X,X) 2.^.E.E.W.3.+           ",
"      1 d.Q.I.I.I.I.I.Q.(.).!./.~.4X9X>X3X<XQ.E.(.5X,X,X5X).W.).)././.Q.Q.5.b C.T.E.E.F.Z .         ",
"      Z K.Q.Y.I.I.I.E.D.i.F.E.x.F.~.l.3.^./.E.P.^./.Q.F.W.Q.I.I.E.I.E.E.E.c.e f.E.E.E.Q.7.3         ",
"    + 6.Q.Y.I.I.I.E.D./ 6.Q.B.-.L.F.R u.E.E.T.T.I.I.P.i.K.E.I.I.I.I.I.F.P.H.B <.Q.E.E.E.B.B o       ",
"    2 c.E.I.E.E.I.P.^ K D.Q.<.;.~.d.c b.E.I.I.I.I.T.D.W A.E.E.T.E.T.F.W c.W.T W W.Q.I.E.G.Q %       ",
"  X e b.Q.L.P.Q.E.d.w a.Q.D.n i.U./ Z G.E.E.I.I.E.E.c.c c.E.I.T.E.E.y.1 -.~.;.E U.E.I.E.U.<.@       ",
"  o c c.J.x.L.Q.G.K C C.E.g.e c.G.C R Y.P.n.W.E.E.E.u.2 d.Q.Y.P.n.H.~ - v N.s.) H.K.L.U.U.2.O       ",
"  X t f.x.z.L.Y.c.9 ) W.E.2.e V.A.e ^ !.v.;.W.T.E.E.1.; P ) ~ L L C q > - d h t Z Z Z P P y .       ",
"    r a.f.f.D.Y.<.5 5.F.Q./ y H.b.w ) Q.y.E W.E.E.W.( , f D { +.+.@.@.X.D g , 6  .%.D *             ",
"  X 4 2.g.f.b.M.P v i.F.U.I B K.b.w ) Q.1.n G.Q.W.W.T 1 r.XX#XXXh.@.@.O.@.4.%.X.h.&X! %             ",
"    @ ~ g.f.g.g.C y y.n.G.L C K.A.B ~ U./ t V.E.T.U.I 0 l.2X0X@.U &._.] ' ` U h.qX0XY o             ",
"    . y s.p.8.s.C 0 ^ n.C.L B H.H.C T S.-.2 g.E.T.P.I q &XwXk.g +XuX}.|.]._.#.B -X=Xf o             ",
"      ; ~ f.-.a.~ h h M.C.L y C.J.Q V m.;.2 3.Y.T.G.T 9 $XrXX.| pXyX}.[.' ] '.a &X$X6 $             ",
"      o w 1.O.O.d.! 0 t.C.! q v.A.1.c 8.y.e T U.E.Q.^ 4 l.rX@.U iXyX}.].] _.`.h 2XoX6 o             ",
"        o r X.t 1.t.w T v.<.9 t.A.f.P 1.g.P w B.Q.Q.-.# k.rX$XB *.uXyX|.{.OXD 4.eX*Xg $             ",
"        X o 0 : r t.O.b a.t.9 ~ x.f.Q O.g.~ # 3.Y.Q.y.# r.rXrXoX! Y } } | [ o.0XwX*XV $             ",
"            o * - e O.5.d.d.P C s.8.e I f.<.- b A.E.c.5 X.eXrXeX2X=X%X#X#X%X0XwXeXk.0 $             ",
"                o @ 4 I 3.g.3.h 4.2.5 6 Q <.0 3 3.W.D.B d *XwXwXwXwXrXqXqXqXwX2Xh.d $ X             ",
"                    X * q I 1.Y Q 4.6 , : h 0 , 7 3.K.-.4 j.eXqXqX2X-X*X$Xj.@.j , o                 ",
"                        o O : g r Y 0 , , < < : ; # E O.4 j Y L D D V u < & $ o X                   ",
"                            X o % > ; , a $.j ; 6 f 7 6 : < +. X'.j - X                             ",
"                                      - i g - 6 _ 0.>.7 ; 7 z *.;X+Xz % X                           ",
"                                      & A F ; S ,.q.w.A 3 _ _ m s z a = o                           ",
"                                    $ 3 >.A ; s S H H f 3 H 0.0.,...6 =                             ",
"                                  o > f >.8 i [ U } | | u M 0.q.q.w.F > X                           ",
"                                . > - G 9.7 g &.*.+X+X Xi M q.0.e.e._ 3 o                           ",
"                                O ; & A ..u < g s d d p ; F 9.G 9.0._ 7 $                           ",
"                                O ; a [ l ,  .XXk.j.k.h.u 7 d 6 f f g u &                           ",
"                                ; - | iX.X< +.0XqXqXqXXX6 [  X X+X+X:X*.-                           ",
"                              O k u a | $.i < Y r.h.r.k 6  X;X@X+X.X X[ X                           ",
"                              @ [ D g < $ * - - , < < , ; i u < ; ; o                               ",
"                              % j k a > X   - 7 f s w q < ; x M 6 = X                               ",
"                                o O X       @ M :.=.=.J 8 5 J J 7 %                                 ",
"                                            . @ x N N M 3 ; 7 5 O                                   ",
"                                              X .   . X X X X X                                     ",
"                                                                                                    ",
"                                                                                                    ",
"                                                                                                    "
};
