/* XPM */
static char *cGl4aWwtZnJhbWUtMCslMjg3JTI5KyUyODIlMjk_[] = {
/* columns rows colors chars-per-pixel */
"50 50 221 2 ",
"   c #000000",
".  c #080604",
"X  c #0D0905",
"o  c #030709",
"O  c #0A070A",
"+  c #050A0D",
"@  c #0B0B0C",
"#  c #120D07",
"$  c #120D0D",
"%  c #15110C",
"&  c #1B140C",
"*  c #0B0D11",
"=  c #160F13",
"-  c #0B1317",
";  c #151513",
":  c #1B1513",
">  c #1B1915",
",  c #171719",
"<  c #1C1B1A",
"1  c #281D0D",
"2  c #261516",
"3  c #231C14",
"4  c #2B1E12",
"5  c #231D1B",
"6  c #331B1C",
"7  c #2D2114",
"8  c #25231B",
"9  c #2C221B",
"0  c #322313",
"q  c #3A2914",
"w  c #32261B",
"e  c #352B1E",
"r  c #3B2C1A",
"t  c #3B331E",
"y  c #1E1F21",
"u  c #251D21",
"i  c #341D22",
"p  c #242221",
"a  c #2D2423",
"s  c #2C2625",
"d  c #2F2C2B",
"f  c #372827",
"g  c #3B2E2B",
"h  c #3C3124",
"j  c #3A322B",
"k  c #3B3536",
"l  c #452E1B",
"z  c #44341D",
"x  c #49351D",
"c  c #55391D",
"v  c #472929",
"b  c #443423",
"n  c #443A27",
"m  c #4C3A22",
"M  c #44332C",
"N  c #523D23",
"B  c #553926",
"V  c #4C2A33",
"C  c #5C2C34",
"Z  c #463736",
"A  c #6C2E30",
"S  c #743635",
"D  c #3F403E",
"F  c #4E4129",
"G  c #574326",
"H  c #5B452B",
"J  c #5D4A2B",
"K  c #4D4338",
"L  c #5B4A34",
"P  c #54453A",
"I  c #664A2A",
"U  c #69512E",
"Y  c #72532D",
"T  c #634D34",
"R  c #644E36",
"E  c #6B5636",
"W  c #735B35",
"Q  c #765936",
"!  c #7B633A",
"~  c #1A3553",
"^  c #593940",
"/  c #6A3945",
"(  c #295474",
")  c #484546",
"_  c #57504B",
"`  c #555859",
"'  c #675648",
"]  c #6A574D",
"[  c #615C5A",
"{  c #786042",
"}  c #786758",
"|  c #6B6B69",
" . c #73706E",
".. c #823A3B",
"X. c #88673C",
"o. c #863D42",
"O. c #8B495A",
"+. c #91485D",
"@. c #8B6C43",
"#. c #866C48",
"$. c #8C714A",
"%. c #927243",
"&. c #997646",
"*. c #866C5A",
"=. c #83725D",
"-. c #997B53",
";. c #A27C4B",
":. c #A37E53",
">. c #9A5065",
",. c #B25971",
"<. c #8D7564",
"1. c #937966",
"2. c #937D69",
"3. c #9C8248",
"4. c #9C8155",
"5. c #9F8C5E",
"6. c #A78248",
"7. c #B58D4E",
"8. c #A48253",
"9. c #AB8857",
"0. c #AE8954",
"q. c #B38C55",
"w. c #BA8E53",
"e. c #B28E5C",
"r. c #B98E59",
"t. c #BB9254",
"y. c #B69158",
"u. c #BC945B",
"i. c #9A836C",
"p. c #9E8872",
"a. c #A3896E",
"s. c #A58B76",
"d. c #B3997D",
"f. c #C39554",
"g. c #C69B56",
"h. c #CC9D5C",
"j. c #CCA25A",
"k. c #D6A458",
"l. c #D4A35D",
"z. c #DBAB5E",
"x. c #E1A75D",
"c. c #E5B25F",
"v. c #C99D60",
"b. c #CAA363",
"n. c #D4A464",
"m. c #D5AA65",
"M. c #DBAC64",
"N. c #DCB066",
"B. c #C1AC78",
"V. c #E2AC60",
"C. c #E7B664",
"Z. c #EAB364",
"A. c #E4B46A",
"S. c #EBB66A",
"D. c #EEBC6B",
"F. c #F5BC66",
"G. c #FEBF65",
"H. c #F4BC6C",
"J. c #FDBF69",
"K. c #E3B472",
"L. c #F2BE72",
"P. c #FEC15E",
"I. c #EBC268",
"U. c #FDC164",
"Y. c #F5C36A",
"T. c #F7C66A",
"R. c #FCC26A",
"E. c #F5C675",
"W. c #FAC671",
"Q. c #F5C973",
"!. c #FACC75",
"~. c #F8D179",
"^. c #FAD27C",
"/. c #3A6A90",
"(. c #456585",
"). c #697E92",
"_. c #4A7DA0",
"`. c #817D80",
"'. c #698699",
"]. c #768996",
"[. c #4984A9",
"{. c #4A92BC",
"}. c #6196B5",
"|. c #73A1C9",
" X c #808C92",
".X c #999598",
"XX c #BA9B82",
"oX c #81A7B9",
"OX c #A5A3A3",
"+X c #B6B2B5",
"@X c #C9A98B",
"#X c #D2B889",
"$X c #CCAD91",
"%X c #D8B696",
"&X c #DCBB9A",
"*X c #E2BD9F",
"=X c #F7B9A4",
"-X c #DBC692",
";X c #E5D28C",
":X c #F8D784",
">X c #FBDB85",
",X c #FCDD88",
"<X c #FCE18D",
"1X c #FBE493",
"2X c #FDE997",
"3X c #FDE699",
"4X c #FDEA99",
"5X c #FDE99C",
"6X c #EAC8A5",
"7X c #F4CAA4",
"8X c #F7CCAA",
"9X c #FDD3A5",
"0X c #FDD3AA",
"qX c #FFD0B1",
"wX c #88B2CC",
"eX c #98BDD8",
"rX c #AEB7C2",
"tX c #CBCBCC",
"yX c #C6D9E8",
"uX c #DDE2E4",
"iX c #ECF1F4",
/* pixels */
"                                                                          o o                       ",
"                                                                                                  o ",
"                                                                                                    ",
"                                                . . . O O o                                         ",
"                                . X & 7 c U X.&.;.6.6.&.X.Y m 0 #                                   ",
"                    o X 1 m W %.7.f.j.V.F.U.U.R.R.U.U.U.U.R.D.h.;.I 7 @ O o                         ",
"                o % F -.m.D.R.P.U.U.T.U.U.G.U.U.U.G.U.U.U.G.G.F.Z.h.:.Q L n 4 X                     ",
"              . e 5.;X5X1X:XQ.Y.P.J.G.U.G.U.U.G.U.G.G.G.G.G.G.G.G.H.V.z.l.j.f.:.J &                 ",
"            . L #X4X5X5X4X4X<XQ.!.:X!.J.R.U.Y.Y.U.G.G.G.G.U.G.G.P.U.J.G.G.D.t.&.9.8.r               ",
"        o : E ;X4X4X4X1X1X4X1X:X3X5X,XW.>X<X<X>XT.G.G.W.^.~.~.~.E.T.T.T.W.R.Y.j.! R $.h .           ",
"      o @ H K.!.^.>X>XQ.,X4X2X2X5X4X^.!.1X2X2X2X~.G.J.:X2X2X2X2X~.~.1X:X<XQ.U.U.C.$.z E b .         ",
"      + a g.R.G.U.U.Y.C.E.,X<X1X3X1XE.^.5X3X1X2X:XJ.G.:X5X3X5X2X^.~.>X1X1X~.Y.U.G.Y.6.r h & o       ",
"      ; ! L.G.U.U.U.A.Q M.J.R.T.!.!.R.!.,X^.!.<X:XU.G.^.1XB.-X<X!.D.T.T.I.J.P.G.G.G.Y.q.e > @       ",
"    o 7 h.U.G.U.P.T.8.x M.U.P.P.J.G.J.U.R.c.Y.U.U.U.G.R.E.u.E A.U.f.m.R.f.;.H.G.P.G.G.U.;.8 , @     ",
"    . H D.P.U.G.U.F.H I A.j.U.U.U.G.J.G.F.X.c.U.U.U.G.J.R.Z.N X.U.t.X.Y.S.Y X.F.U.J.G.U.L.Q : O     ",
"    # X.Y.U.G.G.R.M.q 3.y.x j.Y.U.G.G.U.Z.I t.R.U.U.G.G.G.J.! N Z.z.N j.T.u.q -.Y.U.G.U.U.n.z %     ",
"    & 3.T.P.U.U.U.m.c v.E : X.W.P.G.R.U.m.l &.R.G.U.U.G.P.R.$.0 v.D.G X.U.Y.U z m.U.U.Z.c.Y.X.= o   ",
"  o > -.b.j.t.w.t.0.L #.0 , N e.t.h.l.A.0.3 ! Y.J.U.U.k.k.R.&.1 r.J.U H H.R.0.1 %.T.U.x.f.M.%.&     ",
"  + @ > 3 8 a h h 5 < , > u f h h f h x e ; J H.P.P.U.6.%.W.-.4 y.R.! l N.U.n.z G S.U.k.w.u.X.%     ",
"        o @ _ XX} 5 g ' } 1.p.p.s.p.2.*.' 5 N S.U.P.U.%.I L.%.4 g.U.@.0 b.U.n.T 0 t.D.j.y.e.Q X     ",
"          X ] -X@Xa.*._ ^ D ) P P s.$X@XXXd b A.G.G.R.Q N K.Q t z.U.X.0 f.U.j.#.1 %.h.t.r.e.G X     ",
"          @ P 6X7XE ^ (._.[.{.rX| Z @X0X-Xh l M.G.G.H.H x b.H J A.R.&.1 0.U.h.8.e X.r.r.7.-.0 o     ",
"          + d &X@Xs )./.(.wX{.eXuX_ ' 8X*Xh z N.U.U.m.w L :.x $.m.R.X.4 0.F.g.e.L @.8.;.y.U =       ",
"          + 8 @X$X8 ).( ~ '.{.wXiX| F 7X&Xe m A.G.R.9.1 { #.Y e.j.Y.W 4 q.Z.t.7.&.4.Q -.$.8 o       ",
"          + e %X6XP ` oX_.}.|.yXtXj =.0X$X9 H D.G.L.W 4 -.&.0.r.j.A.G t u.l.7.w.y.#.B #.7 o         ",
"          @ B 6X0Xd.M | ].]. X`.K ] 6X0XXX< W Y.G.m.r M q.r.:.0.g.u.0 J u.t.7.w.-.t j 9             ",
"          + j &X9X9X@X1.*.} *.<.d.6X8X0X<.& &.T.R.%.: H y.8.m $.u.$.8 #.u.y.e.#.e , % .             ",
"          + , ] *X8XqX=X=X=XqXqX9X7X9X7X' 3 f.U.z.x ; E 4.n < E e.L x 9.y.8.R 8 ; * o               ",
"            o @ j *.@X*X7X8XqX0X0X9X9X&Xf x C.N.U : < L j , > J 4.n #.4.W w X O o                   ",
"                    = a Z ' } <.i.i.i.] 2 W e.G : , < > p > : R L n K 8 @ o                         ",
"                          .   * = d ) 5 < g 8 & : 5 : s  .k ; 9 w r 5 o                             ",
"                            o * ) +X.Xy : 5 5 , V O./ 5 8 5 > > z X.h +                             ",
"                              ; Z _ d u ^ O.i i >.,.>.^ : f f : 9 h - +                             ",
"                              = s 2 i +.,.O.2 f +.+.o.^ 2 a f = : < -                               ",
"                              % g f : C ,./ 2 d ^ V d d p ; : a u , +                               ",
"                              ; 2 u > : v i , `.+XrX.X`._ ; a Z 2 - o                               ",
"                              a g : 2 a 9 > , d k k k d y ; d 2 = *                                 ",
"                            $ a u , , : 9 3 3 } 2.<.1.i.} > 8 k a -                                 ",
"                            u .X+XOXi.| K y 3 a.6X7X7X6X2.> | tX` ; o                               ",
"                            : |  XOXOXOXOX].p e *.s.2.' 8 < ` [ d @ o                               ",
"                            o o @ > 5 5 p d u u 5 a a a < > , - +                                   ",
"                                  = 2 f i : u g M M M M 3 - +                                       ",
"                                  + 6 ..o.i 2 A ..S S B > +                                         ",
"                                  o $ 2 6 2 2 v A A C 6 *                                           ",
"                                          o @ O # $ * o                                             ",
"                                                                                                    ",
"                                                                                                    ",
"                                                                                                    ",
"                                                                                                    ",
"                                                                                                    "
};
