/* XPM */
static char *bDNhZG93KyUyODElMjk_[] = {
/* columns rows colors chars-per-pixel */
"50 50 186 2 ",
"   c #2E0000",
".  c #2F050C",
"X  c #320100",
"o  c #3C0A01",
"O  c #33070C",
"+  c #2E0A1A",
"@  c #3B1216",
"#  c #3F1D22",
"$  c #29183C",
"%  c #0A313E",
"&  c #3C212C",
"*  c #37233F",
"=  c #4A0000",
"-  c #461402",
";  c #491700",
":  c #4E1A00",
">  c #511E07",
",  c #471A18",
"<  c #5A2503",
"1  c #5E2C00",
"2  c #5C2F0B",
"3  c #552100",
"4  c #4A2110",
"5  c #562C16",
"6  c #5A3418",
"7  c #602E00",
"8  c #643201",
"9  c #693605",
"0  c #6B3807",
"q  c #6D3B09",
"w  c #653208",
"e  c #713E0D",
"r  c #793E08",
"t  c #612C15",
"y  c #432D27",
"u  c #502C2C",
"i  c #52362D",
"p  c #442B34",
"a  c #583533",
"s  c #7E2424",
"d  c #6A3A22",
"f  c #74410E",
"g  c #764310",
"h  c #7D4917",
"j  c #65422C",
"k  c #724E2C",
"l  c #7B4E27",
"z  c #7C542B",
"x  c #0A3140",
"c  c #1C3A4C",
"v  c #1C2E52",
"b  c #2B294B",
"n  c #32264A",
"m  c #372B49",
"M  c #3C304F",
"N  c #2A2A5F",
"B  c #272955",
"V  c #322D58",
"C  c #3C365D",
"Z  c #2D2D61",
"A  c #323264",
"S  c #37396C",
"D  c #3C3C69",
"F  c #423141",
"G  c #503F55",
"H  c #3F406E",
"J  c #4F4251",
"K  c #51475A",
"L  c #43436D",
"P  c #48486F",
"I  c #514A67",
"U  c #5B5067",
"Y  c #4B4B73",
"T  c #475272",
"R  c #535376",
"E  c #5A5A7B",
"W  c #565778",
"Q  c #706060",
"!  c #62627E",
"~  c #6A6778",
"^  c #726E7F",
"/  c #7F7070",
"(  c #844D1C",
")  c #8A5422",
"_  c #855329",
"`  c #945C2A",
"'  c #985F2D",
"]  c #915927",
"[  c #8E5E3C",
"{  c #99602E",
"}  c #9D6431",
"|  c #9C6737",
" . c #A36A37",
".. c #A56C39",
"X. c #A8703F",
"o. c #A7703C",
"O. c #997350",
"+. c #A06E41",
"@. c #AD7542",
"#. c #AD7943",
"$. c #A77A4F",
"%. c #967F6A",
"&. c #887772",
"*. c #927F7F",
"=. c #AB7878",
"-. c #B9864F",
";. c #BB8650",
":. c #BB8956",
">. c #95897D",
",. c #A0856C",
"<. c #A18B77",
"1. c #C08C55",
"2. c #C9965E",
"3. c #C7945C",
"4. c #CE9C64",
"5. c #D09E65",
"6. c #D4A26B",
"7. c #D2A574",
"8. c #E3B27C",
"9. c #656581",
"0. c #6B6B83",
"q. c #6C6D8B",
"w. c #706F8A",
"e. c #727286",
"r. c #72728B",
"t. c #7B7B8B",
"y. c #7E7E91",
"u. c #8A878C",
"i. c #948B82",
"p. c #9C9084",
"a. c #848491",
"s. c #8C8C95",
"d. c #86869C",
"f. c #8C8D9A",
"g. c #878894",
"h. c #909097",
"j. c #949499",
"k. c #9E9E9E",
"l. c #9E9396",
"z. c #A0A09F",
"x. c #ABA197",
"c. c #8D8EA6",
"v. c #8E8EA8",
"b. c #9393A3",
"n. c #9E9EA4",
"m. c #9696AB",
"M. c #9F9FAE",
"N. c #A3A3A3",
"B. c #A9A9A6",
"V. c #A4A4AB",
"C. c #ABABAB",
"Z. c #B8B2AC",
"A. c #A1A2B2",
"S. c #AEAEB6",
"D. c #B3B3B4",
"F. c #B8B8B7",
"G. c #BCBCBC",
"H. c #EBBB8A",
"J. c #CBBEBE",
"K. c #F7C694",
"L. c #FACA9A",
"P. c #C4C4C4",
"I. c #C5C6C9",
"U. c #CDCDCD",
"Y. c #CAC5C5",
"T. c #D6CBCB",
"R. c #CECFD0",
"E. c #D3D3D3",
"W. c #DEDEDC",
"Q. c #DBDBDA",
"!. c #D9D9D7",
"~. c #E6CFCF",
"^. c #E2E2E1",
"/. c #E4E4E4",
"(. c #EAEAE9",
"). c #EEEEED",
"_. c #F6F6F6",
"`. c #F1F1F1",
"'. c #FAFAFA",
"]. c white",
"[. c #FEFEFE",
"{. c #FDFDFC",
"}. c #FEFEFE",
"|. c #F8F8F7",
" X c None",
".X c black",
/* pixels */
" X X X X X X X X X X X X X X X X X X X X X X X X X X X X X X X X X X X X X X X X X X X X X X X X X X",
" X X X X X X X X X X X X X X X X XN.N.N.N.N.N.N.N.N.N. X X X X X X X X X X X X X X X X X X X X X X X",
" X X X X X X X X X X X X X X XN.V.G.U.U.U.U.U.U.U.U.G.C.N.k.N. X X X X X X X X X X X X X X X X X X X",
" X X X X X X X X X X X X X XC.E._.'.'.'.'.'.`.Q.U.U.U.U.G.C.k.k.N. X X X X X X X X X X X X X X X X X",
" X X X X X X X X X X X XB.U.`.}.}.}.}.}.}.}.}.'.).!.U.U.U.U.G.N.z.z. X X X X X X X X X X X X X X X X",
" X X X X X X X X X X X XV.R.{.}.}.}.}.}.}.}._.^.E.E.U.R.U.U.G.V.k.z.z. X X X X X X X X X X X X X X X",
" X X X X X X X X X X X XU.^.}.}.}.}.|./.!.!.E.R.U.U.U.U.R.U.G.B.k.z.N. X X X X X X X X X X X X X X X",
" X X X X X X X X X X X XU.E.E.E.!.!.!.U.U.U.U.U.R.U.R.U.P.C.V.N.t.Y S  X X X X X X X X X X X X X X X",
" X X X X X X X X X X X XR.(.`.U.S.G.R.R.U.U.R.U.Y.Z.B.B.B.N.N.z.e.D N  X X X X X X X X X X X X X X X",
" X X X X X X X X X X X XY.*.a , u / C.Y.U.D.C.B.B.N.z.z.a.R L P L  X X X X X X X X X X X X X X X X X",
" X X X X X X X X X X X XY.=.s = @ &.P.R.Y.C.z.z.N.N.g.E D A Z Z A  X X X X X X X X X X X X X X X X X",
" X X X X X X X X X X X XC.J.~.T.Y.U.U.F.B.B.h.! P P L A Z A A  X X X X X X X X X X X X X X X X X X X",
" X X X X X X X X X X X X(._.}.}.{.U.B.N.j.0.L A L e.a. X X X X X X X X X X X X X X X X X X X X X X X",
" X X X X X X X X X X X XG.U.Q.W.!.J.j.0.Y A D 0.e.E Y  X X X X X X X X X X X X X X X X X X X X X X X",
" X X X X X X X X X X X X X0.9.9.E R Y  X.Xm.V.N.V.V.d.Y  X X X X X X X X X X X X X X X X X X X X X X",
" X X X X X X X X X X X X X X X X X^ y.h.B.C.C.N.V.C.V.s.0.H  X X X X X X X X X X X X X X X X X X X X",
" X X X X X X X X X X X X X X X XB.F.P.P.G.B.k.k.k.k.a.! ! t.0.H  X X X X X X X X X X X X X X X X X X",
" X X X X X X X X X X X X X X Xk.N.G.U.E.U.C.N.D.Y.Q.I.f.0.E P A Z  X X X X X X X X X X X X X X X X X",
" X X X X X X X X X X X X X X Xk.B.G.U.G.C.V.V.P.W.|.(.G.t.L N A A  X X X X X X X X X X X X X X X X X",
" X X X X X X X X X X X X X X Xk.N.G.Y.S.k.k.C.P.W._.(.D.t.L N A A  X X X X X X X X X X X X X X X X X",
" X X X X X X X X X X X X X X XN.B.C.C.C.j.e.r.S.W._.(.F.t.L B  X X X X X X X X X X X X X X X X X X X",
" X X X X X X X X X X X X X X XE 9.g.N.B.h.Y Y V.W.|.(.D.t.L Z  X X X X X X X X X X X X X X X X X X X",
" X X X X X X X X X X X X X X X X XR ! ! E D R A.^.{.(.D.g.R  X X X X X X X X X X X X X X X X X X X X",
" X X X X X X X X X X X X X X X X X XN Z N Z Y j.D.m.b.n.h.R  X X X X X X X X X X X X X X X X X X X X",
" X X X X X X X X X X X X X X X X X X X X X XD W w.c.c.r.R S n +  X X X X X X X X X X X X X X X X X X",
" X X X X X X X X X X X X X X X X X X X X X Xh.0.w.c.v.q.I * # - ;  X X X X X X X X X X X X X X X X X",
" X X X X X X X X X X X X X X X X X X X Xk i.B.D.S.m.m.V.&.5 ; 1 8  X X X X X X X X X X X X X X X X X",
" X X X X X X X X X X X X X X X X X X Xe l ,.C.I.!.W.P.d.Q l f 8 8  X X X X X X X X X X X X X X X X X",
" X X X X X X X X X X X X X X X X X X X,.,.x.F.G.S.y.W S J [ ( < ;  X X X X X X X X X X X X X X X X X",
" X X X X X X X X X X X X X X XC.D.G.P.Y.I.R.I.C.a.P V F a d t o  X X X X X X X X X X X X X X X X X X",
" X X X X X X X X X X X X XN.V.F.!.`.}.}.{.^.I.C.a.Y m 4 - X   .X X X X X X X X X X X X X X X X X X X",
" X X X X X X X X X X X X Xe.t.n.P.W.).`.(.U.D.f.~ J & O   X .X.X X X X X X X X X X X X X X X X X X X",
" X X X X X X X X X X X X X XA E y.V.G.P.F.C.s.T m 5 3 o X .X.X.X.X.X.X.X X X X X X X X X X X X X X X",
" X X X X X X X X X X X X X X X XS ! t.t.t.a.^ J i 2 3 o   .X.X.X.X.X.X.X X X X X X X X X X X X X X X",
" X X X X X X X X X X X X X X X X.X.XN N v v b y 6 k j # + .X.X.X.X.X.X.X X X X X X X X X X X X X X X",
" X X X X X X X X X X X X X X X X.X.X.Xx % % c T q.y.0.H Z .X.X.X.X.X.X.X X X X X X X X X X X X X X X",
" X X X X X X X X X X X X X X X X X X Xp M V Y c.m.9.I T Y  X.X.X.X.X X X X X X X X X X X X X X X X X",
" X X X X X X X X X X X X X X X X X8 8 8 2 p n m K a.B.B.a.P B .X.X.X X X X X X X X X X X X X X X X X",
" X X X X X X X X X X X X X X X X Xg q 8 < o o < z >.D.P.A.Y $ . - 1 8  X X X X X X X X X X X X X X X",
" X X X X X X X X X X X X X X X.... .' ( w - > _ $.>.x.J.l.U p , > 7 8  X X X X X X X X X X X X X X X",
" X X X X X X X X X X X X X] ` #.1.@.} } ` e g #.1.@..... .} } } ) 9 7  X X X X X X X X X X X X X X X",
" X X X X X X X X X X X X X X9 h ] ` ` ` ( e 9 ( | ;.2.3.-...} } ( 9 1  X X X X X X X X X X X X X X X",
" X X X X X X X X X X X X X X X0 0 0 q e e f g f h ) ` ` ` ` ` ` h 9 7  X X X X X X X X X X X X X X X",
" X X X X X X X X X X X X X X XX.@.+.#.1.5.4.4.5.-.) q 0 9 9 9 8 8 8 8  X X X X X X X X X X X X X X X",
" X X X X X X X X X X X X X` ..4.K.L.L.8.6.5.4.4.4.2.;...} } ) 0 7 8 7  X X X X X X X X X X X X X X X",
" X X X X X X X X X X X X X| +.:.7.H.L.K.H.6.2.2.:.o.{ { ` ` ( 9 7 8  X X X X X X X X X X X X X X X X",
" X X X X X X X X X X X X X Xn.D.G.B.p.O.{ { { { { { ) q 8 8 8 8 8  X X X X X X X X X X X X X X X X X",
" X X X X X X X X X X X X X X XS C i 8 9 8 8 8 8 8 8 8 8 7 8 8  X X X X X X X X X X X X X X X X X X X",
" X X X X X X X X X X X X X X X X X X X X X X X X X X X X X X X X X X X X X X X X X X X X X X X X X X",
" X X X X X X X X X X X X X X X X X X X X X X X X X X X X X X X X X X X X X X X X X X X X X X X X X X"
};
