/* XPM */
static char *_8152ac1d821411aff879a5fc17d2068b1UrKxbObHxTObzQ[] = {
/* columns rows colors chars-per-pixel */
"50 50 174 2 ",
"   c None",
".  c #2E0001",
"X  c #330200",
"o  c #380700",
"O  c #3B0A01",
"+  c #2F0C1C",
"@  c #2F1A36",
"#  c #400F00",
"$  c #450000",
"%  c #431201",
"&  c #481700",
"*  c #4E1C00",
"=  c #481508",
"-  c #501F00",
";  c #451B1B",
":  c #531F10",
">  c #552300",
",  c #592702",
"<  c #5C2A01",
"1  c #58250B",
"2  c #5D310C",
"3  c #562212",
"4  c #5A3218",
"5  c #602E00",
"6  c #643100",
"7  c #693604",
"8  c #6D3B0A",
"9  c #693608",
"0  c #723E0C",
"q  c #602B15",
"w  c #6D3C12",
"e  c #4A2826",
"r  c #502C2C",
"t  c #46333E",
"y  c #5E3C3C",
"u  c #75410E",
"i  c #754211",
"p  c #7B4514",
"a  c #7D4916",
"s  c #7E4A1A",
"d  c #754619",
"f  c #694526",
"g  c #764121",
"h  c #724D29",
"j  c #3D334E",
"k  c #24245B",
"l  c #2A2A5F",
"z  c #3E3454",
"x  c #2D2D61",
"c  c #323263",
"v  c #393967",
"b  c #3D3D69",
"n  c #463243",
"m  c #573F40",
"M  c #563E48",
"N  c #3D4070",
"B  c #614B44",
"V  c #654F57",
"C  c #44446D",
"Z  c #48486F",
"A  c #4A4A72",
"S  c #454570",
"D  c #545475",
"F  c #55557C",
"G  c #5C5C7B",
"H  c #61566B",
"J  c #62627D",
"K  c #6B687A",
"L  c #832B2B",
"P  c #804A16",
"I  c #844E1C",
"U  c #86501E",
"Y  c #834C25",
"T  c #8B5523",
"R  c #8A5328",
"E  c #905826",
"W  c #945C2B",
"Q  c #985F2D",
"!  c #945D32",
"~  c #9A612F",
"^  c #9D6431",
"/  c #A06935",
"(  c #A56E3A",
")  c #A7723D",
"_  c #A9713E",
"`  c #846547",
"'  c #9A6B40",
"]  c #846B53",
"[  c #8A725A",
"{  c #98775A",
"}  c #AD7743",
"|  c #AE7843",
" . c #B27C46",
".. c #B37B48",
"X. c #A77E58",
"o. c #937864",
"O. c #B9854F",
"+. c #B5814C",
"@. c #BC8A52",
"#. c #B58557",
"$. c #9C856C",
"%. c #A1856C",
"&. c #B98F69",
"*. c #C38F57",
"=. c #C6935B",
"-. c #C9965E",
";. c #CA985F",
":. c #CB9960",
">. c #D19F66",
",. c #C39C7B",
"<. c #D3A169",
"1. c #DCAC78",
"2. c #E5B17D",
"3. c #5C5C80",
"4. c #656581",
"5. c #6B6B83",
"6. c #6B6D89",
"7. c #676882",
"8. c #727286",
"9. c #75758A",
"0. c #7B7B8C",
"q. c #737390",
"w. c #7C7D99",
"e. c #7E7E93",
"r. c #81818F",
"t. c #958B81",
"y. c #828292",
"u. c #8A8A95",
"i. c #89899A",
"p. c #93939A",
"a. c #9D9C9D",
"s. c #999693",
"d. c #A69D9A",
"f. c #B89898",
"g. c #A1A19F",
"h. c #8E8EA3",
"j. c #9A9AA2",
"k. c #9292A1",
"l. c #A3A3A2",
"z. c #AAA9A7",
"x. c #A5A5AC",
"c. c #ABABAB",
"v. c #A7A8A9",
"b. c #B8AEA7",
"n. c #B1B1AF",
"m. c #A6A6B4",
"M. c #AFAFB1",
"N. c #B3B3B3",
"B. c #B8B8B7",
"V. c #BBBBBB",
"C. c #BEB6B6",
"Z. c #D9AD83",
"A. c #ECBB85",
"S. c #E7B581",
"D. c #F8C793",
"F. c #D5C2B1",
"G. c #F4CAA0",
"H. c #FFD6AC",
"J. c #BCBCC2",
"K. c #B8B8CA",
"L. c #C4C4C5",
"P. c #C9C9C7",
"I. c #CDCDCD",
"U. c #D6CBC8",
"Y. c #D1D1CF",
"T. c #D3D4D4",
"R. c #D8D8D6",
"E. c #DBDBDB",
"W. c #E5CECE",
"Q. c #E3E3E3",
"!. c #EBEBEB",
"~. c #E8E8E7",
"^. c #F1F2F2",
"/. c #FDFEFE",
/* pixels */
"                                                                                                    ",
"                                            l.l.l.l.l.l.l.l.                                        ",
"                                        a.c.L.I.I.P.P.P.I.V.v.j.g.                                  ",
"                                      v.R./././././.~.Y.I.I.L.n.g.l.                                ",
"                                  a.V.^./././././././.^.E.I.Y.I.J.l.g.g.                            ",
"                                  a.L.^././././././.!.T.I.I.I.Y.L.j.g.a.                            ",
"                                  L.E././././.~.R.T.Y.I.I.Y.I.Y.F.x.a.a.                            ",
"                                  I.T.T.R.R.R.Y.I.I.Y.I.I.Y.I.N.z.j.7.C                             ",
"                                  I.E.^.P.N.P.I.Y.I.Y.P.M.v.v.l.g.a.G x                             ",
"                                  T.d.y ; m s.L.P.M.v.v.l.l.a.J C Z C                               ",
"                                  R.f.L $ r n.T.L.v.d.l.l.y.A v c c                                 ",
"                                  v.C.W.U.U.I.V.c.l.0.A Z b c x c                                   ",
"                                  !.^././.!.N.z.p.G v v 8.r.                                        ",
"                                  B.L.E.Q.T.z.8.Z x D 0.F Z                                         ",
"                                    9.3.3.F D b   j.v.v.x.w.v                                       ",
"                                            x 4.p.6.F G j.e.v                                       ",
"                                          Z 8.v.x.S Z r.M.c.9.A                                     ",
"                                      c J i.B.Y.L.i.u.z.L.E.E.j.5.                                  ",
"                a.a.a.a.            A 9.J 0.L.T.L.c.l.l.c.L.Q.Q.T.l.                                ",
"          l.a.v.B.V.V.B.M.l.a.a.a.0.5.J v F J.R.L.v.r.G G 0.N.R.~.E.V.                              ",
"          l.c.I.!.^.^.!.L.l.B.L.V.n.0.v k F J.P.n.v.5.x x b J p.L.E.Y.B.v.                          ",
"        n.B.B.P.Q.R.I.I.L.N.i.q.9.7.D   4.y.c.v.a.l.8.c x x c J     B.B.N.M.                        ",
"      l.c.N.0.y.L.k.G J p.x.A k           l.l.l.a.5.A c x c c       a.M.Q.P.d.                      ",
"      J 0.j.0.6.q.A l l A G Z                 9.D v x c c c c         N.P.L.B.v.                    ",
"        Z 7.p.a.5.Z c c l x                     N 7.D x x l x           l.B.L.v.a.                  ",
"          c G 7.7.A c c c                       f K 6.6.w.w.7.n         7.m.E.L.c.                  ",
"              l l x                           6 2 e B [ %.$.] 4 %     N G m.~.E.V.l.a.              ",
"                                              6 6 6 6 5 5 5 5 > *   x Z p.B.P.I.L.N.z.i.            ",
"                                              6 7 p 0 6 5 6 6 # .   x Z p.P.~.~.E.I.n.9.v           ",
"                                            6 5 8 W I 6 6 < * O X   x b 7.h.K.^.^.I.n.0.v           ",
"                                          6 6 8 p U i 6 > # X . X     x x b 5.L.R.B.u.J v           ",
"                                        5 7 i I s , > , o o # o X       c G 0.9.8.8.Z               ",
"                                        0 p U u , o     . % 5 % X X         x x x l                 ",
"                                        ,.X.8 < , O .     % * O . + @                               ",
"                                        /.U.` w > o .       X e M D b x                             ",
"                                      /.Q.L.v.    .             j.y.7.A c m I 8 6                   ",
"                                    F.^.R.V.v.                    c 4.0.H o.O.w > 6                 ",
"                              ( _ | &.b.z.s.                  6 4 n j V #._ w : 1 8 7 <             ",
"                            T _ <.D.2.} %.o.d 7               6 6 6 P E Y 4 : ! _ ~ u - X           ",
"                         .^ p T @.S.A.>.| ^ ^ p 6             6 < , , > = g } -.@.~ 0 > X           ",
"                ) _ ..;.>.=._ I i ( @.O.) ^ ^ p 6                 O O 3 R  .=.=. .T 9 * X           ",
"            E ^ *.A.D.1.<.;.} ( ^ p 9 8 I W R w ,                 8 T ^ ^ ^ ^ Q p , O .             ",
"            5 i ' Z.H.G.1.=.=.;.;. ./ ^ a , O . X             6 0 ~ ^ ^ ^ ^ T 9 & X                 ",
"            5 h t.L.T.d.{ ^ ^ } =.;.O./ ^ Y =                 6 0 E Q E W a < O .                   ",
"                6 n j 2 p Q W W W W ~ ^ ^ T 9                     6 6 6 6                           ",
"                      6 6 6 6 6 6 6 u E ^ T 7                                                       ",
"                            6 6 6 6 6 6 6 6                                                         ",
"                                                                                                    ",
"                                                                                                    ",
"                                                                                                    "
};
