/* XPM */
static char *c3RldmUtam9obnNvbi1ZUzBZSkxVX2gyay11bnNwbGFzaCslMjgxJTI5[] = {
/* columns rows colors chars-per-pixel */
"50 50 59 1 ",
"  c #DADADA",
". c gray86",
"X c #DCDADB",
"o c #DBDBDD",
"O c #DDDBDC",
"+ c gainsboro",
"@ c #DDDDDD",
"# c #DEDCDD",
"$ c #DCDCDE",
"% c #DDDDDF",
"& c #DFDDDE",
"* c gray87",
"= c #DFDFDF",
"- c #E0DEDF",
"; c #DEDEE0",
": c #E1DFE0",
"> c gray88",
", c #E1E1E1",
"< c #E2E0E1",
"1 c #E0E0E2",
"2 c #E3E1E2",
"3 c #E2E2E2",
"4 c gray89",
"5 c #E4E2E3",
"6 c #E2E2E4",
"7 c #E5E3E4",
"8 c #E4E4E4",
"9 c gray90",
"0 c #E6E4E5",
"q c #E4E4E6",
"w c #E5E5E7",
"e c #E7E5E6",
"r c #E6E6E6",
"t c #E7E7E7",
"y c #E8E6E7",
"u c #E9E7E8",
"i c gray91",
"p c #E9E9E9",
"a c #EAE8E9",
"s c #EBE9EA",
"d c #EAEAEA",
"f c gray92",
"g c #ECEAEB",
"h c #EDEBEC",
"j c #ECECEC",
"k c gray93",
"l c #EEECED",
"z c #EFEDEE",
"x c #EEEEEE",
"c c #EFEFEF",
"v c gray94",
"b c #F1F1F1",
"n c gray95",
"m c #F3F3F3",
"M c #F4F4F4",
"N c gray96",
"B c #F6F6F6",
"V c gray97",
"C c #F8F8F8",
/* pixels */
"bbbbbbMbMCCCCCCCMMMCCCCCMMMMMMMbNBBCCCCCBBNnnnbvbb",
"bbMbMbMbbbbbbbbMMMMCMMMMMMMMMbMbNNBBCBBBNnNnnnbbBB",
"bMbbbbbbbbbMMMMMbMMMMMMMMMbbbbbbnnNNBBNNnnnnnnnnBC",
"bbbMbbbbbbMMMMMbbbbbMMbMMbbbcbcbbbnnnnnnbbbnnnnNBN",
"MbbMbbbbcccbbbccbcbbMbbbbbbbbcccvbbnnbvvbvvbnnnnnn",
"MMMbbbbbfccbMbbccbbbMbbbbbbbcbbcvbbbbvjvvvvbbnnnNN",
"MMMbbbccccbMMMbcccbbMbbMMbbbbbcbbbnnbvvvvvvbbbbbnn",
"MMbbbcbctfccbcffbbbMbMMbMMbbbbbbnnnnbvvvbbbbbbvvnn",
"bMMMMMbc3tcccfffffccbbbbMMMMMMCMnNNBBNnbvbbbnnnnNN",
"bMbMbbbbffbbccffcfcbMMMbbbbbMMMMNNNnnnnnvvbbnnnnnn",
"bbbbccbbbbbbcccbbMMMMCCMbbMMMCCCBBnbbnNBvvbbbnnnnn",
"bbcccccbMbbbcccbMbMMMMbcMMMMMMMMBNnnbnnnvvbbbbnbbb",
"bbccfccbMMccfccbccfcbbffcbccbccfnnNNNnvvvjvvvbbbbv",
"cbccccbbbbccccbcbbccbbbcbbbbbcccbnnBNnvvvvvvvvbbbb",
"cccbbbbbbcccbbMbMMbMCCMMMbMMMMbMnnnnnnbvjvvvvvbvbb",
"cccbbbbbMbccbMMbMbbbMMMbcbbMMMCCNNbvvvbnvvvjvvvvnn",
"ccccccccfcccbMbMMMMbcbbMMMMCCMMMnnnbbvvjvvjvvbvvbn",
"cfccccfcffccbbbbMbbbccccbbbbMbMMNnnnvvvjvjjjvbvvbn",
"fffcccffcfcccccbccccffffbcccbbbMnnnbvjvvvvjvvvvvbb",
"ffcfcfffccccccbcccbcccftccccbbbbnnnbvvvjvjjjvvvvvb",
"cfccccfccccccccbccccccfffcbMMMMbNnnbvjvjjjjvvvvjvv",
"cccccccfccccccbcfccccffccbbbMMbbnnnbvvvvvjdvvvvjjv",
"fcfffcffffffcccccbcccbcbbbbbbbMMnnbbvvvjjjdjjvvvjv",
"ffffcffttttffffcbbbbbbMCMMcffcMMnnnvvvvvvddjjvjjjd",
"cccfcfffcccccccffcbbcft3fttffcbbnnbbvjddvttdbbdidd",
"cffcfccfffffffffcccbccfffcccccbbvbbnbbvvjttdjdiijd",
"ffffcffcffffffffffccccccccccccccjvbbnnnnvddvviiddj",
"fffcffcccffttffcfffffccccccccfcfvvvvbbbbbvbnbddvdd",
"fffffcfcffttttfffffffffccfcffcfcvvvvvjjjnbnNbdjvid",
"ffffcfffccffffcccccccfccfcfcccccjvjvvvjdvjjvbddjdd",
"ffffffffccccccccccfcccccfcfffcccvjjvvjbvndivbvddjj",
"cffffffttffffffttfffcfffffffftftddvvbnnnndivNnbdvv",
"fffffftffttfttftsshhzhzhhshsssshhfccccccbftbMctfjj",
"ffffffftfftftfffsushhhshhssusussscfcccffcttcMcffjj",
"fffffttfffttttffuusssssssssuusshfffffccfcttcbcffjd",
"ffftfttttt333ttfsusshssshsssshshffffffffft3ccffcdj",
"fttttttfftttttffshhzhhhsshshshhzfcfcfcfffttfcffcjd",
"ffttttttfftfffcchzzhzhshsssshhzzcfcccffftttfffffdd",
"tftt3ttt3ttfffffhhhhhssuyuyuusshffffffffffftttffdd",
"ft333ttt33tfftttsshsssuy7777yyusfffffttttfftttftdd",
"ftttttt3ttt33tt3ssususus77557yssttffffffftttftffdd",
"ft3ttt33t333ttttsssssuuu7555eysstttttttttttttttfdd",
"ttt3t3t333ttttftyushhsy75:5577uufttt3333tttttttfdd",
"tt3t3t33333ttttfyusssu755::57777ftt33333tt3ttttfdi",
"tt333t3*333ttttt7yysuy5----:5555tt3333tt333ttttfti",
"t3333t*3**3ttt3t577ye:--#-::::-:3*333t3ttt333ttftt",
"t333333***33t333557:::#X##----*****3333333333ttftt",
"tt33333**333333*55:--##XXX-----X.**33***333t3ttttt",
"333*3****3***.**........**..****o;;oo11;;;;1ttqwtt",
"33*333******...*.......*.****..*o;;**;;;;;11qttqtq"
};
