/* XPM */
static char *e6ffc6a9703f43359ff455791035f84dT1Fp4EA2GXhlIvAx[] = {
/* columns rows colors chars-per-pixel */
"50 50 217 2 ",
"   c #000000",
".  c #0B0707",
"X  c #040609",
"o  c #05090B",
"O  c #0C0C0C",
"+  c #120E0C",
"@  c #0C110F",
"#  c #13100E",
"$  c #1A140E",
"%  c #060C11",
"&  c #0B0E12",
"*  c #110F13",
"=  c #0C1115",
"-  c #0B1319",
";  c #151414",
":  c #1B1614",
">  c #1C1A15",
",  c #121519",
"<  c #1A1619",
"1  c #141919",
"2  c #1C1A1A",
"3  c #221B15",
"4  c #281917",
"5  c #231C1B",
"6  c #2A1D1B",
"7  c #3B1E1C",
"8  c #2C2517",
"9  c #25221B",
"0  c #2C221C",
"q  c #33251B",
"w  c #342719",
"e  c #392C1C",
"r  c #3D301E",
"t  c #181C23",
"y  c #281922",
"u  c #311E22",
"i  c #182228",
"p  c #2C2422",
"a  c #2A2726",
"s  c #322522",
"d  c #3A2727",
"f  c #342B23",
"g  c #3C3023",
"h  c #3A322A",
"j  c #2D3239",
"k  c #363334",
"l  c #3A3A38",
"z  c #43331E",
"x  c #522C2E",
"c  c #433325",
"v  c #4A3B24",
"b  c #423329",
"n  c #493929",
"m  c #513B28",
"M  c #523D2C",
"N  c #473B36",
"B  c #563339",
"V  c #622E2E",
"C  c #594529",
"Z  c #4C4235",
"A  c #4E433B",
"S  c #5C4B34",
"D  c #564638",
"F  c #634D2E",
"G  c #695329",
"H  c #644E34",
"J  c #624D39",
"K  c #6C5334",
"L  c #685438",
"P  c #725734",
"I  c #745B36",
"U  c #7A5932",
"Y  c #735C3B",
"T  c #795C3B",
"R  c #7B6237",
"E  c #7B623C",
"W  c #2F3C49",
"Q  c #4E3D40",
"!  c #653942",
"~  c #753F4C",
"^  c #324351",
"/  c #174570",
"(  c #38536B",
")  c #224D71",
"_  c #434242",
"`  c #494647",
"'  c #564B43",
"]  c #554B44",
"[  c #595049",
"{  c #525556",
"}  c #79424E",
"|  c #655647",
" . c #765B45",
".. c #715553",
"X. c #7C6443",
"o. c #756148",
"O. c #6D6255",
"+. c #7B6858",
"@. c #585D61",
"#. c #586371",
"$. c #696A6A",
"%. c #6D6F70",
"&. c #767675",
"*. c #856639",
"=. c #85693D",
"-. c #A27E32",
";. c #864757",
":. c #866A43",
">. c #916F45",
",. c #8D7346",
"<. c #987547",
"1. c #856A5A",
"2. c #836D5C",
"3. c #8F7855",
"4. c #A57F4B",
"5. c #A17F54",
"6. c #9C5265",
"7. c #A75166",
"8. c #B6566F",
"9. c #BA5571",
"0. c #8A7665",
"q. c #947B67",
"w. c #998354",
"e. c #AB884C",
"r. c #B38B4E",
"t. c #A78654",
"y. c #B48C51",
"u. c #B78F59",
"i. c #B79354",
"p. c #BD9255",
"a. c #BE945A",
"s. c #BF9A5C",
"d. c #9D846E",
"f. c #81817E",
"g. c #988372",
"h. c #9C8571",
"j. c #AB8A71",
"k. c #AC957D",
"l. c #C59758",
"z. c #CC9D5A",
"x. c #D29C59",
"c. c #CBA259",
"v. c #D2A35C",
"b. c #D9A75D",
"n. c #E0AC5E",
"m. c #EBB55E",
"M. c #C5A363",
"N. c #D2A663",
"B. c #DCAC63",
"V. c #D3B270",
"C. c #EBB565",
"Z. c #E8B664",
"A. c #E3B66B",
"S. c #EDBA6B",
"D. c #F1B663",
"F. c #F5BD64",
"G. c #FEBF65",
"H. c #F4BD69",
"J. c #FDBF69",
"K. c #FDC05E",
"L. c #DFC87C",
"P. c #FDC165",
"I. c #F6C36A",
"U. c #FBC36A",
"Y. c #F5CA76",
"T. c #FACB73",
"R. c #F8D37B",
"E. c #3D77A5",
"W. c #5B7187",
"Q. c #7E7D82",
"!. c #63869C",
"~. c #5A94B8",
"^. c #6593B4",
"/. c #79A5BC",
"(. c #6CA3C7",
"). c #77A6C8",
"_. c #87898A",
"`. c #8F8F96",
"'. c #939294",
"]. c #969C9E",
"[. c #B89A83",
"{. c #A19FA1",
"}. c #9BA4A9",
"|. c #86A7B9",
" X c #9BAAB4",
".X c #A3A4A5",
"XX c #A6A8AB",
"oX c #AAB3B7",
"OX c #B4B6B7",
"+X c #D2988C",
"@X c #C4A78B",
"#X c #D6AB92",
"$X c #D0B091",
"%X c #D8B796",
"&X c #E3BD97",
"*X c #BCC0BF",
"=X c #F8D783",
"-X c #FADD8B",
";X c #EFCE92",
":X c #E8C39E",
">X c #FBE28C",
",X c #FBE393",
"<X c #FAE797",
"1X c #EAC6A2",
"2X c #F4CCA4",
"3X c #FACEA6",
"4X c #F4D0A7",
"5X c #FDD1A5",
"6X c #FCD2A9",
"7X c #85ADCB",
"8X c #A8B9C3",
"9X c #9AC1D7",
"0X c #BEC0C2",
"qX c #C8CACB",
"wX c #CACED1",
"eX c #D8D8D9",
"rX c #DCE3E6",
/* pixels */
"                                          o o X                                                     ",
"                                      o , 1 2 : + O X & O ; + + .                                   ",
"                                  % ; e K <.4.<.E L v v H :.<.:.F w O                               ",
"                                O e ,.b.F.U.H.b.p.i.y.y.i.v.C.G.F.v.E 3 X                           ",
"                            X ; m z.P.G.G.G.G.D.C.Z.l.b.C.D.P.U.J.U.F.r.e X                         ",
"                            O C B.P.G.P.P.P.G.G.G.K.F.F.P.P.G.G.P.G.P.P.l.g X                       ",
"                          & z N.G.K.P.P.G.G.G.G.G.G.P.P.G.G.G.G.G.G.G.G.P.l.w                       ",
"                        X 0 i.P.P.G.P.I.P.G.G.G.G.G.G.G.G.G.P.G.G.G.G.G.G.J.4.$                     ",
"                      X * E I.U.I.I.R.-XI.J.T.U.G.G.P.P.G.G.G.U.I.K.P.K.I.P.I.K &                   ",
"                        e N.U.C.Y.-X<X,XY.R.=XI.G.G.T.I.G.P.G.=XI.I.I.T.T.I.P.c.q                   ",
"                      + Y v.C.l.,X<X;X-X,X<X-XF.C.G.T.R.P.P.P.>X>XY.>X-XR.I.P.I.:..                 ",
"                    o f ,.i.i.V.<XM.t.<X<X<X=XB.4.P.T.>X=XI.P.R.-X>X<X<X<XT.P.v.u.6                 ",
"                    @ H X.i.4.R.L.K j.=XY.-XT.e.R I.T.<X=Xl.H.R.N.;X>XR.,Xc.I.c.5.H X               ",
"                    > X.L <.y.T.z.z N.m.p.R.U.*.R P.P.R.S.I B.T.<.w.>XK.=Xw.l.B.R X.:               ",
"                  X c o.L E B.U.=.z I.e.P F.J.P *.P.G.G.b.C b.I.T m A.P.I.w.>.z.R I q               ",
"                  O H S H T F.H.K K H.F c m.U.K *.U.P.P.z.C m.P.J 6 s.x.U.i.K p.X.S m X             ",
"                  # X.b m <.P.C.v =.Z.e 8 c.U.I *.U.J.U.r.T G.Z.c :  .U C.c.C p.I v S X             ",
"                  9 :.f f r.P.B.z e.i.2 1 y.U.<.:.U.J.J.l.a.I.s.9 2 s z B.b.C p.L e J +             ",
"                  e :.5 0 v.U.v.g a.<.2 : F >.H v P P P L I *.S > 2 ; 8 v.D.C l.F 9 J :             ",
"                  r X.> r B.C.e.8 C w : 2 < 5 6 9 p 9 9 9 9 2 < > 3 2 2 E t.C c.F 3 J $             ",
"                  e X.2 p Y c 9 p h ' | f < ' 0.d.d.d.d.d.0.N 2 l h | [ b y 8 Y n < S >             ",
"                  q o.2 9 M L s 0.g.+.2.2.] 0 | @X$X%X%Xk.b h O.0.] +.[.h.h >.I w 2 S $             ",
"                  3 Y 3 Y S.a.c g.N ^ ^ W N l Z &X5X5X5X@XZ ' ^ ^ ^ _ [ @Xn y.I.5.5 Z : X           ",
"                  # C 0 L S.y.h | %.).E.E.!.` d.5X5X5X5X2X1.{ !.E.E.7X[ g.b :.C.=.5 h O             ",
"                  X w s c N.<.0 b  X7XW./ )._.+.6X5X5X5X:XS }.9XW./ (._.[ b I a.C 2 9 X             ",
"                  ; 3 5 8 w.:.2 k 9X(.#.) (.'. .6X5X5X5X:XA 8X~.( ) (.].A h L t.w < ,               ",
"            X < 9 v C $ : H T 9 f XX).7X~.8X&.1.6X5X5X5X2X' XX)./.^.9Xf.[ f Y E 2 1 &               ",
"    o = a ` _.'.$.z *.w ; e J p ] [ }./.7X XN @X5X5X5X5X5Xd.[ 8X|.|.].A d.0 L g 1 =                 ",
"t j ` _.OX0XeXXX`.` -.C < : f 2 Z O.A Z Q Q q.3X5X5X6X5X5X1X+.A Q Q B h.0.2 h 2 O                   ",
"%.&._.wXwXrXeXXX'.` G v & = 2 : : A j.+X#X1X6X6X5X:X&X2X5X5X4X&X#X+X+X1.5 > : *                     ",
"].}.8XwXoX`.@.j i , O     X , : : : d ..[.&X1X3X5X3X;X3X5X5X4X1X$Xq.N 1 1 2 *                       ",
"_.$.{ l i - - - o           o , < t < : 4 b D  .1.3.q.q.2.+.' N p 3 ; 1 > = X                       ",
"* X X X X                     X - t % t p Q y * < 4 4 3 $ : u B 4 y j { 2 =                         ",
"                                o o o i B 6.} u * s n B q < u ! u a {.&.> 1                         ",
"                                    & i ~ 8.8.6.! 4 6 M M b q 4 : j @.p o.+.+                       ",
"                                    & t ;.8.9.9.9.;.u 4 7 c b b s < a o.$X$X$                       ",
"                                    & 5 } 6.7.7.7.7.B ~ x < 6 f M 6 Z %X4X+..                       ",
"                                    = p a 5 7 d d u 4 x u < : 4 9 2 3 | | :                         ",
"                                    $ !.OX}._.&.%.%.$.&.&.&.'..XQ.k & X X                           ",
"                                    + O..X*X*XOXeXeXeXeXqXqXOXOX'.Q X                               ",
"                                    % , : a j k l N ^ A k k a 9 t =                                 ",
"                                      - : 2 p 9 1 & X = 3 V V 4 = X                                 ",
"                                      o > V V 7 1 %   X * 7 7 ; X                                   ",
"                                        # x x 4 -           X X                                     ",
"                                        X O & o X                                                   ",
"                                                                                                    ",
"                                                                                                    ",
"                                                                                                    ",
"                                                                                                    ",
"                                                                                                    "
};
