/* XPM */
static char *bGJhYislMjgyJTI5KyUyODElMjk_[] = {
/* columns rows colors chars-per-pixel */
"50 50 166 2 ",
"   c #010101",
".  c #0A0501",
"X  c #0F0904",
"o  c #070708",
"O  c #0A0909",
"+  c #140B05",
"@  c #190D05",
"#  c #160F0B",
"$  c #1D0F08",
"%  c #0F100F",
"&  c #1B130D",
"*  c #0F1010",
"=  c #141313",
"-  c #1A1512",
";  c #1F1B13",
":  c #1B1C1B",
">  c #240A0A",
",  c #23150C",
"<  c #2B170C",
"1  c #2E190C",
"2  c #331D0E",
"3  c #221A14",
"4  c #221F1E",
"5  c #321E13",
"6  c #381E10",
"7  c #37200F",
"8  c #39200F",
"9  c #23211E",
"0  c #2C221B",
"q  c #352214",
"w  c #3C2312",
"e  c #32251C",
"r  c #3C2318",
"t  c #232322",
"y  c #2D2723",
"u  c #292B29",
"i  c #372C22",
"p  c #2E302D",
"a  c #323531",
"s  c #393D3B",
"d  c #432514",
"f  c #472814",
"g  c #4C2B16",
"h  c #4F2E18",
"j  c #512F17",
"k  c #522F19",
"l  c #48311B",
"z  c #55341B",
"x  c #5C361D",
"c  c #56381E",
"v  c #593B1F",
"b  c #62361E",
"n  c #62391E",
"m  c #463020",
"M  c #503923",
"N  c #5B3C20",
"B  c #673422",
"V  c #6B3723",
"C  c #643920",
"Z  c #6D3A23",
"A  c #763E27",
"S  c #793F27",
"D  c #3C413E",
"F  c #5D432F",
"G  c #514437",
"H  c #5B4433",
"J  c #6D4122",
"K  c #764224",
"L  c #794027",
"P  c #7C4228",
"I  c #624633",
"U  c #3F4441",
"Y  c #414642",
"T  c #454945",
"R  c #4A4C47",
"E  c #474C49",
"W  c #4A4E4B",
"Q  c #534A40",
"!  c #4D514D",
"~  c #5C5242",
"^  c #51534D",
"/  c #4F5450",
"(  c #525651",
")  c #565A55",
"_  c #5A5C55",
"`  c #575C58",
"'  c #5A5E59",
"]  c #635A4D",
"[  c #5E625B",
"{  c #61645D",
"}  c #66685F",
"|  c #626761",
" . c #656A62",
".. c #6A6E66",
"X. c #6A6F68",
"o. c #6D7167",
"O. c #6E726A",
"+. c #72766C",
"@. c #75796E",
"#. c #787A6F",
"$. c #717770",
"%. c #757A71",
"&. c #7A7D73",
"*. c #804D27",
"=. c #83462A",
"-. c #844D2A",
";. c #8C4D2D",
":. c #86512A",
">. c #8B532D",
",. c #93562E",
"<. c #965B2F",
"1. c #855C3B",
"2. c #915730",
"3. c #955C30",
"4. c #9C5D32",
"5. c #9D6233",
"6. c #A46535",
"7. c #A66837",
"8. c #AA6937",
"9. c #A36138",
"0. c #AB663B",
"q. c #AC673A",
"w. c #AA6439",
"e. c #A76938",
"r. c #AD6D38",
"t. c #AC6C38",
"y. c #B16A3C",
"u. c #B26C3C",
"i. c #B26B3C",
"p. c #B86F3E",
"a. c #B4703C",
"s. c #BB743F",
"d. c #BD783F",
"f. c #BE7341",
"g. c #BC7A40",
"h. c #C07542",
"j. c #C27E42",
"k. c #7B8077",
"l. c #7D8077",
"z. c #7D8075",
"x. c #7D8076",
"c. c #7D8178",
"v. c #7F8379",
"b. c #7E837A",
"n. c #7F847A",
"m. c #7D8279",
"M. c #808277",
"N. c #808276",
"B. c #808278",
"V. c #81847A",
"C. c #82857A",
"Z. c #80877D",
"A. c #82877D",
"S. c #84877C",
"D. c #81857B",
"F. c #84897E",
"G. c #868A7F",
"H. c #86897E",
"J. c #84887F",
"K. c #C58044",
"L. c #868A80",
"P. c #858A81",
"I. c #888C81",
"U. c #8F938B",
"Y. c None",
"T. c black",
/* pixels */
"Y.Y.Y.Y.Y.Y.Y.Y.Y.Y.Y.Y.Y.Y.Y.Y.Y.Y.Y.Y.Y.Y.Y.Y.Y.Y.Y.Y.Y.Y.Y.Y.Y.Y.Y.Y.Y.Y.Y.Y.Y.Y.Y.Y.Y.Y.Y.Y.Y.Y.",
"Y.Y.Y.Y.Y.Y.Y.Y.Y.Y.Y.Y.Y.Y.Y.Y.Y.Y.Y.Y.Y.Y.Y.Y.Y.Y.Y.Y.Y.Y.Y.Y.Y.Y.Y.Y.Y.Y.Y.Y.Y.Y.Y.Y.Y.Y.Y.Y.Y.Y.",
"Y.Y.Y.Y.Y.Y.Y.Y.Y.Y.Y.Y.Y.Y.Y.Y.Y.Y.Y.Y.Y.O.$.@.$.$.$.$.[ Y.Y.Y.Y.Y.Y.Y.Y.Y.Y.Y.Y.Y.Y.Y.Y.Y.Y.Y.Y.Y.",
"Y.Y.Y.Y.Y.Y.Y.Y.Y.Y.Y.Y.Y.Y.Y.Y.Y.Y.Y.Y.| P.P.G.L.F.n.k.O.Y.Y.Y.Y.Y.Y.Y.Y.Y.Y.Y.Y.Y.Y.Y.Y.Y.Y.Y.Y.Y.",
"Y.Y.Y.Y.Y.Y.Y.Y.Y.Y.Y.Y.Y.Y.Y.Y.Y.Y.Y.Y.| &.x.x.&.&.....| Y.Y.Y.Y.Y.Y.Y.Y.Y.Y.Y.Y.Y.Y.Y.Y.Y.Y.Y.Y.Y.",
"Y.Y.Y.Y.Y.Y.Y.Y.Y.Y.Y.Y.Y.Y.Y.Y.Y.Y.Y.Y.) %.#.&.1.&.....) Y.Y.Y.Y.Y.Y.Y.Y.Y.Y.Y.Y.Y.Y.Y.Y.Y.Y.Y.Y.Y.",
"Y.Y.Y.Y.Y.Y.Y.Y.Y.Y.Y.Y.Y.Y.Y.Y.Y.Y.Y.Y.! O.&.&.P.Z.O.X./ Y.Y.Y.Y.Y.Y.Y.Y.Y.Y.Y.Y.Y.Y.Y.Y.Y.Y.Y.Y.Y.",
"Y.Y.Y.Y.Y.Y.Y.Y.Y.Y.Y.Y.Y.Y.Y.Y.Y.Y. .o./ | #.+.$.b.@.@.` $.O.Y.Y.Y.Y.Y.Y.Y.Y.Y.Y.Y.Y.Y.Y.Y.Y.Y.Y.Y.",
"Y.Y.Y.Y.Y.Y.Y.Y.Y.Y.Y.Y.@. .Y.Y.| $.&.&.[ ) @.O.$.$.k.O.| Z.$.k.X.! Y.x.&.Y.Y.Y.Y.Y.Y.Y.Y.Y.Y.Y.Y.Y.",
"Y.Y.Y.Y.Y.Y.Y.Y.Y.Y...&.k.$.{ | n.k.$.@.| ) x.x.Z.Z.%.X.X.k.O.O.&.[ %.I.G.$.Y.Y.Y.Y.Y.Y.Y.Y.Y.Y.Y.Y.",
"Y.Y.Y.Y.Y.Y.Y.Y.Y.) $.%.%.@.%.[ O.b.&.$.../ o.@.$.$.O.[ O.k.$.$. .{ G.G.S.x.O.Y.Y.Y.Y.Y.Y.Y.Y.Y.Y.Y.",
"Y.Y.Y.Y.Y.Y.Y.Y.Y./ O.@.$.&.&.@.[ O.o.Q i 0 9 9 : : : : t T  .+.{ V.V.V.V.G.O.Y.Y.Y.Y.Y.Y.Y.Y.Y.Y.Y.",
"Y.Y.Y.Y.Y.Y.Y.Y.Y.Y.! ..&.@.@.k.[ G m w 2 < +               = a ..G.b.b.x.X.^ Y.Y.Y.Y.Y.Y.Y.Y.Y.Y.Y.",
"Y.Y.Y.Y.Y.Y.Y.Y.Y.Y.| [ ..$.@. .G C z f 7 1 + .                 p  .@.b. . .[ Y.Y.Y.Y.Y.Y.Y.Y.Y.Y.Y.",
"Y.Y.Y.Y.Y.Y.Y.Y.Y.[ n.%.' .._ H -.-.z f 7 1 X .                   4 ) _ ..V.#.W Y.Y.Y.Y.Y.Y.Y.Y.Y.Y.",
"Y.Y.Y.Y.Y.Y.Y.Y.Y.@.&.&...E F :.9.>.v f w 1 X .                     : [ V.Z.V...Y.Y.Y.Y.Y.Y.Y.Y.Y.Y.",
"Y.Y.Y.Y.Y.Y.Y.Y.( +.#.x.O.I 5.5.q.2.x h w 2 @ .                       u +.V.x.+.! Y.Y.Y.Y.Y.Y.Y.Y.Y.",
"Y.Y.Y.Y.Y.Y.Y.Y.| [ o.&.] >.g.e.u.2.x z 8 2 @ .                         ! @...[ ) Y.Y.Y.Y.Y.Y.Y.Y.Y.",
"Y.Y.Y.Y.Y.Y.Y. .&.@.+.} 1.q.K.t.u.>.n j w < + .                         : _ O.@.o.! Y.Y.Y.Y.Y.Y.Y.Y.",
"Y.Y.Y.Y.Y.Y.Y.O.@.+.@._ 5.f.K.r.u.>.x g 8 < + .                           ^ @.+.@.{ Y.Y.Y.Y.Y.Y.Y.Y.",
"Y.Y.Y.Y.Y.Y.Y.} @.@.o.~ 7.f.K.t.u.>.z g 6 < + .                           Y +.@.@.{ Y.Y.Y.Y.Y.Y.Y.Y.",
"Y.Y.Y.Y.Y.Y.Y.[ } } _ M q.y.g.5.u.2.x g w q & X                           : ' | { _ Y.Y.Y.Y.Y.Y.Y.Y.",
"Y.Y.Y.Y.Y. .&.Z.Z.G.{ M 6.0.d.8.f.2.n k r y 9 #                           O | n.&.Z.L.%.( Y.Y.Y.Y.Y.",
"Y.Y.Y.Y.! %.%.+...+.{ v e.r.g.r.p.2.n h q 9 t ;                           = | &.x.Z.%.+.^ Y.Y.Y.Y.Y.",
"Y.Y.Y.Y.( b.%.V.N.+._ n 8.u.j.u.y.>.n g 5 9 : -                           O O.%.&.x.k.#.! Y.Y.Y.Y.Y.",
"Y.Y.Y.Y.! %.&.&.N.&._ v q.f.j.r.y.-.z f e : = %                           = $.&.&.k.&.@.! Y.Y.Y.Y.Y.",
"Y.Y.Y.Y.R ..O.O.o.%.{ v e.h.j.8.w.*.z d 0 4 - +                           * O.&.@.@.O. .! Y.Y.Y.Y.Y.",
"Y.Y.Y.Y.T ' ' ' _ { ^ v 7.g.j.7.w.:.j r 3 : - @                           * ' | [ [ _ ( T Y.Y.Y.Y.Y.",
"Y.Y.Y.Y.Y.Y.Y ) o...^ v 8.h.d.4.y.>.j w , & , @                           * ( X.X.( U Y.Y.Y.Y.Y.Y.Y.",
"Y.Y.Y.Y.Y.Y.Y.$.U.S.{ z 6.h.d.5.y.:.f d 1 1 < #                           = O.V.%.' Y.Y.Y.Y.Y.Y.Y.Y.",
"Y.Y.Y.Y.Y.Y.Y. .S.N.{ c 6.h.d.4.i.>.f d q 2 , +                           * $.&.@.{ Y.Y.Y.Y.Y.Y.Y.Y.",
"Y.Y.Y.Y.Y.Y.Y.{ #.N.[ x 6.s.h.6.i.>.k d 6 2 @ .                           * X.@.O.[ Y.Y.Y.Y.Y.Y.Y.Y.",
"Y.Y.Y.Y.Y.Y.Y.{ #.@._ v 7.f.j.8.a.,.z f 6 1 + .                           *  .X.| ) Y.Y.Y.Y.Y.Y.Y.Y.",
"Y.Y.Y.Y.Y.Y.Y.[ ..{ ^ v 7.f.d.6.y.:.k f 6 1 +                             * ' X.[ ) Y.Y.Y.Y.Y.Y.Y.Y.",
"Y.Y.Y.Y.Y.! / ( ` ( T c 6.p.h.6.6.=.g d 6 1 + .                           * W ) ` ( / ( W Y.Y.Y.Y.Y.",
"Y.Y.Y.Y.E @.F.L.I.Z.{ c 8.s.j.5.4.=.j d d 1 + .                           * O.b.k.&.&.%./ Y.Y.Y.Y.Y.",
"Y.Y.Y.Y.W %.%.&.&.#._ v 6.s.s.<.,.K g d d < X                             O X. ...&.S.#./ Y.Y.Y.Y.Y.",
"Y.Y.Y.Y./ &.&.V.#.+._ c 6.y.d.,.;.K f d 2 < .                             = @.+.+.N.V.+./ Y.Y.Y.Y.Y.",
"Y.Y.Y.Y./ k.&.b.#.+._ x 6.6.a.:.=.A f 6 2 @                               * $.V.N.1.&.@.( Y.Y.Y.Y.Y.",
"Y.Y.Y.Y.W %.&.x.@.o.^ x 4.,.6.K A n d 6 $                                 * X.b.b.U.&.X.! Y.Y.Y.Y.Y.",
"Y.Y.Y.Y.T {  .[ [ _ ! c <.;.4.n V b d $             o     o     o         = ! [ | | | / U T.T.T.Y.Y.",
"Y.Y.Y.Y.Y.Y.T ` O.o.^ c <.-.;.b V x ,     o o O O O O O O o o o o o o o o = ) X.$.` T T.T.T.T.T.Y.Y.",
"Y.Y.Y.Y.Y.Y.Y.{ &.x.{ c ,.=.=.b B 5 o O O O O O O O o o o o o o o . o o o : @.&.$.[ T.T.T.T.T.T.Y.Y.",
"Y.Y.Y.Y.Y.Y.Y.} %.$.{ z >.S S x 5 O O O O O O o O o o . o   . o   o o o o : $.%.$.[ T.T.T.T.T.T.Y.Y.",
"Y.Y.Y.Y.Y.Y.Y...#.+.[ c :.A A 5 O O O O o o o o o o Y.Y.Y.Y.Y.Y.Y.Y.Y.Y.Y.t ..%.%.| T.T.T.T.T.T.Y.Y.",
"Y.Y.Y.Y.Y.Y.Y...+...) c >.A r O O O O O o Y.Y.Y.Y.Y.Y.Y.Y.Y.Y.Y.Y.Y.Y.Y.Y.u { %.b.X.T.T.T.T.T.T.Y.Y.",
"Y.Y.Y.Y.Y.Y.Y.[ } { ! l J 5 O O O O O Y.Y.Y.Y.Y.Y.Y.Y.Y.Y.Y.Y.Y.Y.Y.Y.Y.Y.Y.' O.%.| T.T.T.T.T.T.Y.Y.",
"Y.Y.Y.Y.Y.Y.Y.U T T s ; = = > + % T.T.Y.Y.Y.Y.Y.Y.Y.Y.Y.Y.Y.Y.Y.Y.Y.Y.Y.Y.Y.D E E T T.T.T.T.T.T.Y.Y.",
"Y.Y.Y.Y.Y.Y.Y.Y.Y.Y.Y.Y.Y.Y.Y.Y.Y.Y.Y.Y.Y.Y.Y.Y.Y.Y.Y.Y.Y.Y.Y.Y.Y.Y.Y.Y.Y.Y.Y.Y.Y.Y.Y.Y.Y.Y.Y.Y.Y.Y.",
"Y.Y.Y.Y.Y.Y.Y.Y.Y.Y.Y.Y.Y.Y.Y.Y.Y.Y.Y.Y.Y.Y.Y.Y.Y.Y.Y.Y.Y.Y.Y.Y.Y.Y.Y.Y.Y.Y.Y.Y.Y.Y.Y.Y.Y.Y.Y.Y.Y.Y."
};
